<?xml version="1.0" encoding="UTF-8"?>
<!DOCTYPE svg PUBLIC "-//W3C//DTD SVG 1.1//EN" "http://www.w3.org/Graphics/SVG/1.1/DTD/svg11.dtd">
<svg xmlns="http://www.w3.org/2000/svg" xmlns:xlink="http://www.w3.org/1999/xlink" version="1.1" width="842px" height="777px" style="shape-rendering:geometricPrecision; text-rendering:geometricPrecision; image-rendering:optimizeQuality; fill-rule:evenodd; clip-rule:evenodd">

<g><path style="opacity:1" fill="#b0b1b2" d="M 473.5,27.5 C 463.484,27.4532 453.484,27.7865 443.5,28.5C 449.26,26.9999 455.26,26.3332 461.5,26.5C 465.681,26.5011 469.681,26.8344 473.5,27.5 Z"/></g>
<g><path style="opacity:1" fill="#8d9090" d="M 474.5,27.5 C 479.414,27.3618 484.081,28.0285 488.5,29.5C 483.586,29.6382 478.919,28.9715 474.5,27.5 Z"/></g>
<g><path style="opacity:1" fill="#0d171f" d="M 512.5,35.5 C 513.791,35.2627 514.791,35.596 515.5,36.5C 514.624,36.3691 513.957,36.7025 513.5,37.5C 515.003,39.4216 517.003,40.5883 519.5,41C 518.549,41.7175 518.383,42.5509 519,43.5C 519.893,42.9186 520.893,42.5852 522,42.5C 529.589,45.3812 537.089,48.3812 544.5,51.5C 544.5,52.5 544.5,53.5 544.5,54.5C 545.833,54.5 547.167,54.5 548.5,54.5C 549.976,57.6614 550.976,60.9947 551.5,64.5C 553.451,64.7733 554.951,64.1066 556,62.5C 558.546,64.5888 561.046,66.7555 563.5,69C 564.448,69.4828 565.448,69.6495 566.5,69.5C 566.119,71.9418 566.786,72.6085 568.5,71.5C 569.386,72.325 569.719,73.325 569.5,74.5C 570.552,74.3505 571.552,74.5172 572.5,75C 572.5,76.3333 572.5,77.6667 572.5,79C 570.246,79.6237 568.579,80.957 567.5,83C 563.733,81.8622 559.733,81.3622 555.5,81.5C 553.972,84.3644 553.139,87.3644 553,90.5C 551.644,91.3802 550.144,91.7135 548.5,91.5C 548.5,92.5 548.5,93.5 548.5,94.5C 547.167,94.5 545.833,94.5 544.5,94.5C 544.688,92.8967 544.188,91.5634 543,90.5C 541.175,91.1029 539.341,91.7696 537.5,92.5C 539.006,93.7472 540.506,93.7472 542,92.5C 542.483,93.448 542.649,94.448 542.5,95.5C 537.414,99.028 531.747,101.528 525.5,103C 525.888,104.808 525.888,106.475 525.5,108C 518.83,110.683 512.663,114.183 507,118.5C 504.994,117.918 502.827,117.918 500.5,118.5C 496.28,117.677 492.28,116.344 488.5,114.5C 485.791,117.05 482.624,118.716 479,119.5C 478.626,118.584 478.126,117.75 477.5,117C 473.176,115.963 469.342,114.13 466,111.5C 457.538,112.887 449.038,114.054 440.5,115C 422.549,120.4 411.382,132.233 407,150.5C 406.139,161.233 406.639,171.899 408.5,182.5C 407.473,185.053 405.807,187.22 403.5,189C 399.756,187.887 397.422,189.387 396.5,193.5C 395.088,194.806 393.421,195.64 391.5,196C 390.324,198.686 388.657,201.019 386.5,203C 378.887,208.276 371.554,213.943 364.5,220C 363.62,221.356 363.286,222.856 363.5,224.5C 352.399,233.09 341.399,241.923 330.5,251C 327.906,253.086 325.906,255.586 324.5,258.5C 323.833,248.833 323.167,239.167 322.5,229.5C 322.5,228.167 322.5,226.833 322.5,225.5C 322.097,215.016 320.764,204.683 318.5,194.5C 317.522,194.023 316.689,193.357 316,192.5C 315.432,189.779 315.099,187.112 315,184.5C 316,185.5 317,186.5 318,187.5C 319.15,185.246 319.484,182.913 319,180.5C 318.577,179.044 317.744,178.544 316.5,179C 317.731,180.183 317.731,181.349 316.5,182.5C 315.692,180.577 315.192,178.577 315,176.5C 309.724,178.273 307.224,175.94 307.5,169.5C 306.5,169.5 305.5,169.5 304.5,169.5C 303.833,168.833 303.167,168.167 302.5,167.5C 301.094,167.027 300.427,166.027 300.5,164.5C 299.606,161.043 297.94,158.043 295.5,155.5C 294.92,153.251 293.587,151.585 291.5,150.5C 290.833,149.5 290.167,148.5 289.5,147.5C 293.564,136.704 298.731,126.371 305,116.5C 309.323,110.348 314.157,104.681 319.5,99.5C 321.587,98.4154 322.92,96.7488 323.5,94.5C 326.435,91.0622 329.601,87.7289 333,84.5C 332.825,79.6134 331.992,74.7801 330.5,70C 330.528,68.9302 330.861,68.0968 331.5,67.5C 331.231,69.4286 331.731,71.0953 333,72.5C 333.283,69.1492 334.45,66.1492 336.5,63.5C 340.591,57.953 345.925,54.1196 352.5,52C 353.667,48.8333 355.167,48.6667 357,51.5C 357.915,50.6721 358.581,49.6721 359,48.5C 359.561,49.0219 360.228,49.3552 361,49.5C 363.513,47.0429 366.346,46.3763 369.5,47.5C 371.549,44.4503 374.216,42.117 377.5,40.5C 379.882,41.3507 381.882,42.684 383.5,44.5C 388.836,47.1696 394.503,48.003 400.5,47C 402.391,44.4555 404.724,43.6222 407.5,44.5C 408.197,42.6155 409.197,42.2822 410.5,43.5C 412.115,42.846 413.782,42.346 415.5,42C 415.833,40.3333 416.167,38.6667 416.5,37C 422.42,35.5474 428.42,34.3807 434.5,33.5C 435.833,33.8333 437.167,34.1667 438.5,34.5C 441.659,33.0788 444.993,32.0788 448.5,31.5C 448.998,32.6034 449.331,33.6034 449.5,34.5C 453.541,33.3619 457.541,33.3619 461.5,34.5C 462.192,33.9747 462.692,33.3081 463,32.5C 463.308,33.3081 463.808,33.9747 464.5,34.5C 471.343,32.0785 478.177,32.0785 485,34.5C 493.442,33.6663 501.942,34.6663 510.5,37.5C 511.713,37.2528 512.38,36.5862 512.5,35.5 Z"/></g>
<g><path style="opacity:1" fill="#5f5f60" d="M 382.5,34.5 C 379.14,34.6159 375.807,34.9492 372.5,35.5C 374.117,34.0277 376.117,33.361 378.5,33.5C 380.045,33.5108 381.378,33.8442 382.5,34.5 Z"/></g>
<g><path style="opacity:1" fill="#11161a" d="M 473.5,27.5 C 473.833,27.5 474.167,27.5 474.5,27.5C 478.919,28.9715 483.586,29.6382 488.5,29.5C 496.815,30.6252 504.815,32.6252 512.5,35.5C 512.38,36.5862 511.713,37.2528 510.5,37.5C 501.942,34.6663 493.442,33.6663 485,34.5C 478.177,32.0785 471.343,32.0785 464.5,34.5C 463.808,33.9747 463.308,33.3081 463,32.5C 462.692,33.3081 462.192,33.9747 461.5,34.5C 457.541,33.3619 453.541,33.3619 449.5,34.5C 449.331,33.6034 448.998,32.6034 448.5,31.5C 444.993,32.0788 441.659,33.0788 438.5,34.5C 437.167,34.1667 435.833,33.8333 434.5,33.5C 428.42,34.3807 422.42,35.5474 416.5,37C 416.167,38.6667 415.833,40.3333 415.5,42C 413.782,42.346 412.115,42.846 410.5,43.5C 409.197,42.2822 408.197,42.6155 407.5,44.5C 404.724,43.6222 402.391,44.4555 400.5,47C 394.503,48.003 388.836,47.1696 383.5,44.5C 381.882,42.684 379.882,41.3507 377.5,40.5C 374.216,42.117 371.549,44.4503 369.5,47.5C 366.346,46.3763 363.513,47.0429 361,49.5C 360.228,49.3552 359.561,49.0219 359,48.5C 358.581,49.6721 357.915,50.6721 357,51.5C 355.167,48.6667 353.667,48.8333 352.5,52C 345.925,54.1196 340.591,57.953 336.5,63.5C 334.45,66.1492 333.283,69.1492 333,72.5C 331.731,71.0953 331.231,69.4286 331.5,67.5C 331.491,65.6916 331.991,64.0249 333,62.5C 344.968,51.6903 358.135,42.6903 372.5,35.5C 375.807,34.9492 379.14,34.6159 382.5,34.5C 386.543,37.0401 390.709,39.3735 395,41.5C 410.638,35.3813 426.805,31.048 443.5,28.5C 453.484,27.7865 463.484,27.4532 473.5,27.5 Z"/></g>
<g><path style="opacity:1" fill="#696b6e" d="M 657.5,63.5 C 653.936,65.919 649.936,67.5856 645.5,68.5C 649.064,66.081 653.064,64.4144 657.5,63.5 Z"/></g>
<g><path style="opacity:1" fill="#0d171f" d="M 656.5,81.5 C 656.586,82.4959 656.252,83.3292 655.5,84C 659.956,84.8673 664.289,84.5339 668.5,83C 678.494,82.5002 688.494,82.3335 698.5,82.5C 706.676,82.6612 713.843,85.3279 720,90.5C 720.862,92.087 721.529,93.7536 722,95.5C 722.152,100.032 722.319,104.365 722.5,108.5C 722.082,109.222 721.416,109.722 720.5,110C 721.167,110.167 721.833,110.333 722.5,110.5C 725.204,109.428 727.87,108.428 730.5,107.5C 730.5,106.5 730.5,105.5 730.5,104.5C 733.358,103.493 735.858,101.827 738,99.5C 740.557,100.646 741.89,99.6457 742,96.5C 743.314,98.2685 744.147,100.269 744.5,102.5C 742.12,107.267 740.287,112.267 739,117.5C 734.656,121.063 730.823,124.396 727.5,127.5C 725.694,126.141 724.194,126.475 723,128.5C 721.887,127.289 720.72,127.289 719.5,128.5C 717.576,132.094 714.91,135.094 711.5,137.5C 709.833,136.167 708.167,136.167 706.5,137.5C 702.329,133.651 697.329,131.651 691.5,131.5C 691.833,130.833 692.167,130.167 692.5,129.5C 694.167,129.167 695.833,128.833 697.5,128.5C 701.857,129.859 706.19,131.192 710.5,132.5C 710.5,130.833 710.5,129.167 710.5,127.5C 708.833,127.5 707.167,127.5 705.5,127.5C 704.46,122.115 701.46,118.115 696.5,115.5C 694.955,114.548 693.288,114.215 691.5,114.5C 691.5,116.5 691.5,118.5 691.5,120.5C 679.167,120.5 666.833,120.5 654.5,120.5C 655.678,126.496 653.844,128.496 649,126.5C 641.564,127.457 634.397,128.791 627.5,130.5C 623.111,130.455 618.777,129.955 614.5,129C 615.5,128.5 616.5,128 617.5,127.5C 618.484,124.572 618.817,121.572 618.5,118.5C 614.427,118.808 610.427,119.475 606.5,120.5C 606.5,122.167 606.5,123.833 606.5,125.5C 602.152,125.909 597.819,126.076 593.5,126C 594.244,123.093 595.91,120.927 598.5,119.5C 597.833,119.167 597.167,118.833 596.5,118.5C 594.085,120.216 591.418,120.716 588.5,120C 590.087,119.138 591.754,118.471 593.5,118C 593.167,117.667 592.833,117.333 592.5,117C 586.436,116.693 580.436,117.193 574.5,118.5C 574.762,117.022 574.429,115.689 573.5,114.5C 571.677,115.747 569.677,116.414 567.5,116.5C 567.704,119.545 567.704,122.379 567.5,125C 571.236,126.507 571.236,127.34 567.5,127.5C 567.617,129.484 566.95,131.15 565.5,132.5C 560.231,133.95 555.564,136.45 551.5,140C 549.246,141.15 546.913,141.484 544.5,141C 544.833,140.667 545.167,140.333 545.5,140C 544.5,139.333 543.5,139.333 542.5,140C 543.167,141.333 543.833,142.667 544.5,144C 543.167,144 541.833,144 540.5,144C 534.841,150.325 528.008,154.825 520,157.5C 519.667,156.833 519.333,156.167 519,155.5C 517.963,158.384 516.129,159.05 513.5,157.5C 511.351,154.144 510.351,150.478 510.5,146.5C 513.187,146.659 515.52,145.825 517.5,144C 517.043,143.586 516.709,143.086 516.5,142.5C 517.397,142.331 518.397,141.998 519.5,141.5C 518.975,140.808 518.308,140.308 517.5,140C 518.701,139.097 519.535,137.931 520,136.5C 520.333,136.833 520.667,137.167 521,137.5C 523.589,135.789 526.089,133.955 528.5,132C 526.26,130.193 523.927,130.026 521.5,131.5C 526.474,128.009 531.808,125.009 537.5,122.5C 539.674,122.25 541.341,121.25 542.5,119.5C 558.659,109.701 575.326,100.701 592.5,92.5C 594.027,92.573 595.027,91.9063 595.5,90.5C 598.588,88.6249 601.922,87.2915 605.5,86.5C 607.06,86.5191 608.56,86.8524 610,87.5C 614.543,84.8953 619.209,82.5619 624,80.5C 624.945,80.9054 625.612,81.572 626,82.5C 629.237,80.4199 632.737,78.9199 636.5,78C 635.273,76.4126 635.606,75.0793 637.5,74C 653.783,68.2804 670.283,63.4471 687,59.5C 689.667,60.8333 692.333,60.8333 695,59.5C 697.526,59.5651 699.859,60.2317 702,61.5C 706.156,60.2849 710.322,60.4516 714.5,62C 715.711,62.8928 715.711,63.7261 714.5,64.5C 711.944,65.0512 709.611,66.0512 707.5,67.5C 702.189,67.0165 697.189,66.6832 692.5,66.5C 691.295,68.1376 689.962,68.4709 688.5,67.5C 685.692,68.9696 682.692,69.8029 679.5,70C 671.502,73.1574 663.502,76.6574 655.5,80.5C 655.624,81.1067 655.957,81.44 656.5,81.5 Z"/></g>
<g><path style="opacity:1" fill="#5e5f60" d="M 634.5,72.5 C 631.947,74.5837 628.947,75.917 625.5,76.5C 628.053,74.4163 631.053,73.083 634.5,72.5 Z"/></g>
<g><path style="opacity:1" fill="#f4f4f3" d="M 719.5,74.5 C 721.421,75.3627 723.421,76.0293 725.5,76.5C 730.152,79.4642 732.485,83.7975 732.5,89.5C 731.427,97.0741 728.094,103.407 722.5,108.5C 722.319,104.365 722.152,100.032 722,95.5C 721.529,93.7536 720.862,92.087 720,90.5C 713.843,85.3279 706.676,82.6612 698.5,82.5C 690.01,81.6704 681.343,81.1704 672.5,81C 670.042,79.2669 670.375,78.1002 673.5,77.5C 674.708,76.7659 676.041,76.4326 677.5,76.5C 680.152,76.5905 682.485,75.9238 684.5,74.5C 684.833,74.5 685.167,74.5 685.5,74.5C 696.841,73.2612 708.174,73.2612 719.5,74.5 Z"/></g>
<g><path style="opacity:1" fill="#e4857a" d="M 195.5,92.5 C 178.552,90.231 161.552,89.8976 144.5,91.5C 144.5,91.1667 144.5,90.8333 144.5,90.5C 158.113,88.0028 171.78,87.8362 185.5,90C 189.133,90.1489 192.466,90.9823 195.5,92.5 Z"/></g>
<g><path style="opacity:1" fill="#949797" d="M 570.5,87.5 C 568.388,89.7705 565.721,91.1039 562.5,91.5C 564.789,89.6127 567.455,88.2794 570.5,87.5 Z"/></g>
<g><path style="opacity:1" fill="#f1afa6" d="M 144.5,90.5 C 144.5,90.8333 144.5,91.1667 144.5,91.5C 140.802,91.5524 137.135,91.8857 133.5,92.5C 133.918,91.7784 134.584,91.2784 135.5,91C 138.482,90.502 141.482,90.3354 144.5,90.5 Z"/></g>
<g><path style="opacity:1" fill="#d74537" d="M 195.5,92.5 C 196.833,92.5 198.167,92.5 199.5,92.5C 208.022,95.0334 216.355,98.0334 224.5,101.5C 217.085,99.6458 209.752,97.4791 202.5,95C 181.589,92.3588 160.589,91.8588 139.5,93.5C 130.445,95.1768 121.445,97.1768 112.5,99.5C 118.902,95.8104 125.902,93.477 133.5,92.5C 137.135,91.8857 140.802,91.5524 144.5,91.5C 161.552,89.8976 178.552,90.231 195.5,92.5 Z"/></g>
<g><path style="opacity:1" fill="#707276" d="M 595.5,90.5 C 595.027,91.9063 594.027,92.573 592.5,92.5C 592.973,91.0937 593.973,90.427 595.5,90.5 Z"/></g>
<g><path style="opacity:1" fill="#f9cfc8" d="M 199.5,92.5 C 202.898,92.1796 206.232,92.513 209.5,93.5C 213.595,95.5632 217.928,96.8966 222.5,97.5C 224.188,98.5213 225.521,99.8546 226.5,101.5C 225.833,101.5 225.167,101.5 224.5,101.5C 216.355,98.0334 208.022,95.0334 199.5,92.5 Z"/></g>
<g><path style="opacity:1" fill="#4e4f51" d="M 323.5,94.5 C 322.92,96.7488 321.587,98.4154 319.5,99.5C 320.08,97.2512 321.413,95.5846 323.5,94.5 Z"/></g>
<g><path style="opacity:1" fill="#d36258" d="M 112.5,99.5 C 107.804,101.697 103.137,104.197 98.5,107C 97.2068,107.49 95.8734,107.657 94.5,107.5C 99.8039,103.5 105.804,100.834 112.5,99.5 Z"/></g>
<g><path style="opacity:1" fill="#d65449" d="M 229.5,103.5 C 234.139,103.824 237.806,105.824 240.5,109.5C 237.728,108.409 234.895,107.409 232,106.5C 230.69,105.87 229.856,104.87 229.5,103.5 Z"/></g>
<g><path style="opacity:1" fill="#0f151a" d="M 515.5,36.5 C 541.79,45.127 564.457,59.4604 583.5,79.5C 579.27,82.4428 574.937,85.1095 570.5,87.5C 567.455,88.2794 564.789,89.6127 562.5,91.5C 536.747,104.471 511.581,118.471 487,133.5C 481.748,128.249 475.915,123.749 469.5,120C 441.473,111.265 421.973,120.432 411,147.5C 409.969,152.099 409.469,156.765 409.5,161.5C 410.025,169.576 410.859,177.576 412,185.5C 395.711,198.388 379.545,211.388 363.5,224.5C 363.286,222.856 363.62,221.356 364.5,220C 371.554,213.943 378.887,208.276 386.5,203C 388.657,201.019 390.324,198.686 391.5,196C 393.421,195.64 395.088,194.806 396.5,193.5C 397.422,189.387 399.756,187.887 403.5,189C 405.807,187.22 407.473,185.053 408.5,182.5C 406.639,171.899 406.139,161.233 407,150.5C 411.382,132.233 422.549,120.4 440.5,115C 449.038,114.054 457.538,112.887 466,111.5C 469.342,114.13 473.176,115.963 477.5,117C 478.126,117.75 478.626,118.584 479,119.5C 482.624,118.716 485.791,117.05 488.5,114.5C 492.28,116.344 496.28,117.677 500.5,118.5C 502.827,117.918 504.994,117.918 507,118.5C 512.663,114.183 518.83,110.683 525.5,108C 525.888,106.475 525.888,104.808 525.5,103C 531.747,101.528 537.414,99.028 542.5,95.5C 542.649,94.448 542.483,93.448 542,92.5C 540.506,93.7472 539.006,93.7472 537.5,92.5C 539.341,91.7696 541.175,91.1029 543,90.5C 544.188,91.5634 544.688,92.8967 544.5,94.5C 545.833,94.5 547.167,94.5 548.5,94.5C 548.5,93.5 548.5,92.5 548.5,91.5C 550.144,91.7135 551.644,91.3802 553,90.5C 553.139,87.3644 553.972,84.3644 555.5,81.5C 559.733,81.3622 563.733,81.8622 567.5,83C 568.579,80.957 570.246,79.6237 572.5,79C 572.5,77.6667 572.5,76.3333 572.5,75C 571.552,74.5172 570.552,74.3505 569.5,74.5C 569.719,73.325 569.386,72.325 568.5,71.5C 566.786,72.6085 566.119,71.9418 566.5,69.5C 565.448,69.6495 564.448,69.4828 563.5,69C 561.046,66.7555 558.546,64.5888 556,62.5C 554.951,64.1066 553.451,64.7733 551.5,64.5C 550.976,60.9947 549.976,57.6614 548.5,54.5C 547.167,54.5 545.833,54.5 544.5,54.5C 544.5,53.5 544.5,52.5 544.5,51.5C 537.089,48.3812 529.589,45.3812 522,42.5C 520.893,42.5852 519.893,42.9186 519,43.5C 518.383,42.5509 518.549,41.7175 519.5,41C 517.003,40.5883 515.003,39.4216 513.5,37.5C 513.957,36.7025 514.624,36.3691 515.5,36.5 Z"/></g>
<g><path style="opacity:1" fill="#797b7a" d="M 542.5,119.5 C 541.341,121.25 539.674,122.25 537.5,122.5C 538.659,120.75 540.326,119.75 542.5,119.5 Z"/></g>
<g><path style="opacity:1" fill="#de483b" d="M 240.5,109.5 C 257.969,118.687 273.469,130.687 287,145.5C 287.464,146.094 287.631,146.761 287.5,147.5C 284.28,144.117 280.614,141.284 276.5,139C 274.737,135.064 271.737,132.897 267.5,132.5C 266.075,127.121 262.741,125.454 257.5,127.5C 257.5,126.167 257.5,124.833 257.5,123.5C 255.396,123.799 253.396,123.466 251.5,122.5C 252.167,121.833 252.833,121.167 253.5,120.5C 252.478,119.646 251.645,118.646 251,117.5C 247.291,115.043 243.791,112.376 240.5,109.5 Z"/></g>
<g><path style="opacity:1" fill="#d64b3d" d="M 93.5,108.5 C 90.3047,111.852 86.638,114.685 82.5,117C 80.4376,118.532 79.1043,120.532 78.5,123C 76.5643,123.813 74.5643,124.313 72.5,124.5C 72.5,125.5 72.5,126.5 72.5,127.5C 70.712,127.215 69.0453,127.548 67.5,128.5C 63.4967,133.003 59.1633,137.17 54.5,141C 53.5939,142.699 53.2606,144.533 53.5,146.5C 52.448,146.351 51.448,146.517 50.5,147C 42.7679,155.719 36.2679,165.219 31,175.5C 31.1314,181.115 28.9648,185.448 24.5,188.5C 25.1495,186.565 25.4828,184.565 25.5,182.5C 39.4949,152.332 60.4949,128.166 88.5,110C 90.1545,109.392 91.8211,108.892 93.5,108.5 Z"/></g>
<g><path style="opacity:1" fill="#561518" d="M 291.5,150.5 C 293.587,151.585 294.92,153.251 295.5,155.5C 293.413,154.415 292.08,152.749 291.5,150.5 Z"/></g>
<g><path style="opacity:1" fill="#a8413b" d="M 287.5,147.5 C 288.167,147.5 288.833,147.5 289.5,147.5C 290.167,148.5 290.833,149.5 291.5,150.5C 292.08,152.749 293.413,154.415 295.5,155.5C 297.94,158.043 299.606,161.043 300.5,164.5C 297.353,159.835 293.52,155.502 289,151.5C 288.209,150.255 287.709,148.922 287.5,147.5 Z"/></g>
<g><path style="opacity:1" fill="#87312c" d="M 302.5,167.5 C 303.167,168.167 303.833,168.833 304.5,169.5C 306.666,172.838 307.999,176.505 308.5,180.5C 307.407,178.651 306.074,176.984 304.5,175.5C 303.25,172.994 302.584,170.327 302.5,167.5 Z"/></g>
<g><path style="opacity:1" fill="#0d151b" d="M 753.5,168.5 C 751.863,167.782 750.197,167.616 748.5,168C 747.289,168.893 747.289,169.726 748.5,170.5C 754.417,173.097 760.084,176.097 765.5,179.5C 766.451,178.674 767.451,178.508 768.5,179C 774.216,183.032 780.216,186.699 786.5,190C 788.126,193.202 790.626,195.369 794,196.5C 794.49,197.793 794.657,199.127 794.5,200.5C 799.616,201.685 802.116,205.018 802,210.5C 805.906,216.5 807.74,223.167 807.5,230.5C 803.501,259.007 800.001,287.674 797,316.5C 795.58,323.412 792.747,329.579 788.5,335C 785.813,335.341 783.813,336.674 782.5,339C 778.137,339.369 773.804,339.869 769.5,340.5C 765.475,338.874 761.809,339.54 758.5,342.5C 761.874,367.74 750.874,381.74 725.5,384.5C 724.833,384.5 724.167,384.5 723.5,384.5C 723.134,383.305 722.301,382.639 721,382.5C 713.208,383.045 705.375,383.045 697.5,382.5C 697.082,381.778 696.416,381.278 695.5,381C 701.416,380.193 707.25,380.359 713,381.5C 716.147,380.722 719.313,379.889 722.5,379C 720.405,378.444 720.238,377.944 722,377.5C 724.453,378.493 726.953,378.66 729.5,378C 727.792,376.938 727.126,375.771 727.5,374.5C 726.914,374.709 726.414,375.043 726,375.5C 724.266,374.751 722.433,374.251 720.5,374C 722.5,373.667 724.5,373.333 726.5,373C 715.703,373.114 705.536,372.947 696,372.5C 691.718,372.03 687.885,373.03 684.5,375.5C 681.33,373.805 677.996,373.305 674.5,374C 673.91,375.509 673.244,377.009 672.5,378.5C 669.754,380.924 666.254,383.257 662,385.5C 661.439,388.29 660.106,390.623 658,392.5C 657.667,392.167 657.333,391.833 657,391.5C 655.414,392.376 653.914,393.376 652.5,394.5C 651.808,393.975 651.308,393.308 651,392.5C 650.667,392.833 650.333,393.167 650,393.5C 646.251,388.357 642.251,383.357 638,378.5C 637.667,378.833 637.333,379.167 637,379.5C 636.691,378.234 636.191,377.067 635.5,376C 633.061,374.39 630.394,373.556 627.5,373.5C 627.721,376.279 627.388,378.946 626.5,381.5C 624.525,378.694 622.025,376.361 619,374.5C 618.691,373.234 618.191,372.067 617.5,371C 614.411,368.927 611.077,367.26 607.5,366C 604.7,363.935 603.033,361.602 602.5,359C 600.433,357.343 599.1,355.676 598.5,354C 600.396,352.935 600.563,352.102 599,351.5C 598.055,351.905 597.388,352.572 597,353.5C 594.888,352.777 592.888,351.777 591,350.5C 589.902,351.384 589.402,352.384 589.5,353.5C 584.394,349.309 578.728,346.143 572.5,344C 571.299,343.097 570.465,341.931 570,340.5C 569.586,340.957 569.086,341.291 568.5,341.5C 560.524,338.909 552.524,336.576 544.5,334.5C 543.287,334.747 542.62,335.414 542.5,336.5C 537.711,335.491 533.044,334.491 528.5,333.5C 532.042,333.38 535.542,333.714 539,334.5C 540.404,334.491 541.57,333.991 542.5,333C 532.664,330.535 522.664,328.868 512.5,328C 492.5,327.333 472.5,327.333 452.5,328C 446.249,330.455 445.249,329.122 449.5,324C 450.449,323.383 451.282,323.549 452,324.5C 453.926,322.455 456.092,320.622 458.5,319C 483.769,317.535 508.769,319.368 533.5,324.5C 535.067,324.523 536.4,324.023 537.5,323C 535.68,322.8 534.347,321.966 533.5,320.5C 536.167,321.167 538.833,321.833 541.5,322.5C 543.515,323.924 545.848,324.59 548.5,324.5C 549.167,324.5 549.833,324.5 550.5,324.5C 590.343,337.265 624.677,358.931 653.5,389.5C 659.742,381.757 667.075,375.257 675.5,370C 693.141,368.917 710.808,367.917 728.5,367C 733.607,366.598 737.607,364.431 740.5,360.5C 741.117,360.389 741.617,360.056 742,359.5C 742.801,356.633 742.634,353.966 741.5,351.5C 740.833,351.5 740.5,351.167 740.5,350.5C 741.756,350.539 742.756,350.039 743.5,349C 737.009,345.235 730.009,343.902 722.5,345C 717.88,346.719 713.213,347.219 708.5,346.5C 705.769,341.261 707.102,337.428 712.5,335C 722.966,334.267 733.299,335.1 743.5,337.5C 745.982,336.103 748.648,335.269 751.5,335C 755.138,330.021 758.804,325.021 762.5,320C 760.582,318.23 760.082,316.063 761,313.5C 761.5,311.667 762.667,310.5 764.5,310C 763.428,307.324 764.095,304.991 766.5,303C 765.663,299.419 765.329,295.919 765.5,292.5C 766.937,290.979 767.604,289.145 767.5,287C 766.609,282.685 766.276,278.519 766.5,274.5C 767.63,261.521 768.464,248.521 769,235.5C 767.029,227.909 762.195,223.075 754.5,221C 745.84,221.177 737.174,221.177 728.5,221C 725.995,217.709 722.995,214.876 719.5,212.5C 719.167,211.167 718.833,209.833 718.5,208.5C 719.347,207.155 720.513,206.155 722,205.5C 723.113,206.711 724.28,206.711 725.5,205.5C 727.69,207.524 730.023,209.357 732.5,211C 740.167,211.333 747.833,211.667 755.5,212C 758.285,213.137 760.785,214.637 763,216.5C 765.269,215.405 767.436,215.739 769.5,217.5C 772.877,216.915 774.71,214.915 775,211.5C 775.732,207.312 776.899,203.312 778.5,199.5C 777.453,197.944 776.786,196.277 776.5,194.5C 766.744,190.235 757.078,185.569 747.5,180.5C 747.167,180.667 746.833,180.833 746.5,181C 747.823,181.816 748.489,182.983 748.5,184.5C 736.684,179.424 725.017,174.091 713.5,168.5C 711.967,166.755 709.967,165.755 707.5,165.5C 704.833,164.5 702.167,163.5 699.5,162.5C 697.967,160.755 695.967,159.755 693.5,159.5C 687.341,157.669 681.341,155.669 675.5,153.5C 673.064,152.129 670.397,151.129 667.5,150.5C 660.559,149.072 653.893,147.072 647.5,144.5C 643.406,142.721 639.073,141.388 634.5,140.5C 628.106,139.317 621.773,137.984 615.5,136.5C 613.898,134.926 611.898,134.259 609.5,134.5C 605.147,133.941 600.814,133.275 596.5,132.5C 591.911,130.125 586.911,129.125 581.5,129.5C 579.143,129.337 576.81,129.503 574.5,130C 552.456,143.355 530.122,156.188 507.5,168.5C 506.558,168.392 505.725,168.059 505,167.5C 502.606,161.713 499.94,156.046 497,150.5C 496.333,148.833 496.333,147.167 497,145.5C 504.778,140.238 512.944,135.572 521.5,131.5C 523.927,130.026 526.26,130.193 528.5,132C 526.089,133.955 523.589,135.789 521,137.5C 520.667,137.167 520.333,136.833 520,136.5C 519.535,137.931 518.701,139.097 517.5,140C 518.308,140.308 518.975,140.808 519.5,141.5C 518.397,141.998 517.397,142.331 516.5,142.5C 516.709,143.086 517.043,143.586 517.5,144C 515.52,145.825 513.187,146.659 510.5,146.5C 510.351,150.478 511.351,154.144 513.5,157.5C 516.129,159.05 517.963,158.384 519,155.5C 519.333,156.167 519.667,156.833 520,157.5C 528.008,154.825 534.841,150.325 540.5,144C 541.833,144 543.167,144 544.5,144C 543.833,142.667 543.167,141.333 542.5,140C 543.5,139.333 544.5,139.333 545.5,140C 545.167,140.333 544.833,140.667 544.5,141C 546.913,141.484 549.246,141.15 551.5,140C 555.564,136.45 560.231,133.95 565.5,132.5C 566.95,131.15 567.617,129.484 567.5,127.5C 571.236,127.34 571.236,126.507 567.5,125C 567.704,122.379 567.704,119.545 567.5,116.5C 569.677,116.414 571.677,115.747 573.5,114.5C 574.429,115.689 574.762,117.022 574.5,118.5C 580.436,117.193 586.436,116.693 592.5,117C 592.833,117.333 593.167,117.667 593.5,118C 591.754,118.471 590.087,119.138 588.5,120C 591.418,120.716 594.085,120.216 596.5,118.5C 597.167,118.833 597.833,119.167 598.5,119.5C 595.91,120.927 594.244,123.093 593.5,126C 597.819,126.076 602.152,125.909 606.5,125.5C 606.5,123.833 606.5,122.167 606.5,120.5C 610.427,119.475 614.427,118.808 618.5,118.5C 618.817,121.572 618.484,124.572 617.5,127.5C 616.5,128 615.5,128.5 614.5,129C 618.777,129.955 623.111,130.455 627.5,130.5C 634.397,128.791 641.564,127.457 649,126.5C 653.844,128.496 655.678,126.496 654.5,120.5C 666.833,120.5 679.167,120.5 691.5,120.5C 691.5,118.5 691.5,116.5 691.5,114.5C 693.288,114.215 694.955,114.548 696.5,115.5C 701.46,118.115 704.46,122.115 705.5,127.5C 707.167,127.5 708.833,127.5 710.5,127.5C 710.5,129.167 710.5,130.833 710.5,132.5C 706.19,131.192 701.857,129.859 697.5,128.5C 695.833,128.833 694.167,129.167 692.5,129.5C 692.167,130.167 691.833,130.833 691.5,131.5C 697.329,131.651 702.329,133.651 706.5,137.5C 708.167,136.167 709.833,136.167 711.5,137.5C 714.91,135.094 717.576,132.094 719.5,128.5C 720.72,127.289 721.887,127.289 723,128.5C 724.194,126.475 725.694,126.141 727.5,127.5C 730.823,124.396 734.656,121.063 739,117.5C 740.287,112.267 742.12,107.267 744.5,102.5C 744.147,100.269 743.314,98.2685 742,96.5C 741.89,99.6457 740.557,100.646 738,99.5C 735.858,101.827 733.358,103.493 730.5,104.5C 730.5,105.5 730.5,106.5 730.5,107.5C 727.87,108.428 725.204,109.428 722.5,110.5C 721.833,110.333 721.167,110.167 720.5,110C 721.416,109.722 722.082,109.222 722.5,108.5C 728.094,103.407 731.427,97.0741 732.5,89.5C 732.485,83.7975 730.152,79.4642 725.5,76.5C 723.967,74.7549 721.967,73.7549 719.5,73.5C 707.964,71.899 696.631,72.2323 685.5,74.5C 685.167,74.5 684.833,74.5 684.5,74.5C 681.848,74.4095 679.515,75.0762 677.5,76.5C 676.041,76.4326 674.708,76.7659 673.5,77.5C 667.851,78.8304 662.185,80.1637 656.5,81.5C 655.957,81.44 655.624,81.1067 655.5,80.5C 663.502,76.6574 671.502,73.1574 679.5,70C 682.692,69.8029 685.692,68.9696 688.5,67.5C 689.962,68.4709 691.295,68.1376 692.5,66.5C 697.189,66.6832 702.189,67.0165 707.5,67.5C 709.611,66.0512 711.944,65.0512 714.5,64.5C 715.711,63.7261 715.711,62.8928 714.5,62C 710.322,60.4516 706.156,60.2849 702,61.5C 699.859,60.2317 697.526,59.5651 695,59.5C 692.333,60.8333 689.667,60.8333 687,59.5C 670.283,63.4471 653.783,68.2804 637.5,74C 635.606,75.0793 635.273,76.4126 636.5,78C 632.737,78.9199 629.237,80.4199 626,82.5C 625.612,81.572 624.945,80.9054 624,80.5C 619.209,82.5619 614.543,84.8953 610,87.5C 608.56,86.8524 607.06,86.5191 605.5,86.5C 611.574,82.1294 618.241,78.7961 625.5,76.5C 628.947,75.917 631.947,74.5837 634.5,72.5C 637.939,70.7957 641.605,69.4624 645.5,68.5C 649.936,67.5856 653.936,65.919 657.5,63.5C 668.756,60.3593 680.089,57.5259 691.5,55C 714.644,50.3962 733.81,56.8962 749,74.5C 754.896,85.791 754.896,97.1243 749,108.5C 745.417,114.526 741.251,120.026 736.5,125C 726.639,132.424 716.639,139.591 706.5,146.5C 722.324,153.579 737.99,160.913 753.5,168.5 Z"/></g>
<g><path style="opacity:1" fill="#8b8d8c" d="M 707.5,165.5 C 709.967,165.755 711.967,166.755 713.5,168.5C 711.033,168.245 709.033,167.245 707.5,165.5 Z"/></g>
<g><path style="opacity:1" fill="#676767" d="M 693.5,159.5 C 695.967,159.755 697.967,160.755 699.5,162.5C 697.033,162.245 695.033,161.245 693.5,159.5 Z"/></g>
<g><path style="opacity:1" fill="#7d7e7f" d="M 667.5,150.5 C 670.397,151.129 673.064,152.129 675.5,153.5C 672.284,153.655 669.617,152.655 667.5,150.5 Z"/></g>
<g><path style="opacity:1" fill="#a2a2a3" d="M 634.5,140.5 C 639.073,141.388 643.406,142.721 647.5,144.5C 643.405,144.192 639.405,143.359 635.5,142C 634.944,141.617 634.611,141.117 634.5,140.5 Z"/></g>
<g><path style="opacity:1" fill="#8a8d8d" d="M 609.5,134.5 C 611.898,134.259 613.898,134.926 615.5,136.5C 613.102,136.741 611.102,136.074 609.5,134.5 Z"/></g>
<g><path style="opacity:1" fill="#4a4e4d" d="M 581.5,129.5 C 586.911,129.125 591.911,130.125 596.5,132.5C 591.273,132.022 586.273,131.022 581.5,129.5 Z"/></g>
<g><path style="opacity:1" fill="#cccdce" d="M 673.5,77.5 C 670.375,78.1002 670.042,79.2669 672.5,81C 681.343,81.1704 690.01,81.6704 698.5,82.5C 688.494,82.3335 678.494,82.5002 668.5,83C 664.289,84.5339 659.956,84.8673 655.5,84C 656.252,83.3292 656.586,82.4959 656.5,81.5C 662.185,80.1637 667.851,78.8304 673.5,77.5 Z"/></g>
<g><path style="opacity:1" fill="#525658" d="M 719.5,74.5 C 719.5,74.1667 719.5,73.8333 719.5,73.5C 721.967,73.7549 723.967,74.7549 725.5,76.5C 723.421,76.0293 721.421,75.3627 719.5,74.5 Z"/></g>
<g><path style="opacity:1" fill="#85898a" d="M 684.5,74.5 C 682.485,75.9238 680.152,76.5905 677.5,76.5C 679.515,75.0762 681.848,74.4095 684.5,74.5 Z"/></g>
<g><path style="opacity:1" fill="#b0b3b4" d="M 719.5,73.5 C 719.5,73.8333 719.5,74.1667 719.5,74.5C 708.174,73.2612 696.841,73.2612 685.5,74.5C 696.631,72.2323 707.964,71.899 719.5,73.5 Z"/></g>
<g><path style="opacity:1" fill="#0e161c" d="M 402.5,234.5 C 402.013,233.527 401.513,232.527 401,231.5C 392.257,238.454 383.424,245.288 374.5,252C 371.966,254.365 369.633,256.865 367.5,259.5C 364.711,260.648 362.044,261.981 359.5,263.5C 347.801,274.095 335.634,284.095 323,293.5C 321.268,293.266 320.434,292.266 320.5,290.5C 321.064,288.181 321.564,285.847 322,283.5C 327.345,278.764 332.512,273.931 337.5,269C 336.181,268.805 334.847,268.972 333.5,269.5C 364.835,243.841 396.501,218.507 428.5,193.5C 428.833,192.167 429.167,190.833 429.5,189.5C 426.659,177.329 425.826,164.996 427,152.5C 433.665,134.42 446.165,128.586 464.5,135C 469.954,138.12 474.454,142.287 478,147.5C 481.619,157.032 485.619,166.365 490,175.5C 491.737,181.084 489.904,184.917 484.5,187C 481.366,187.79 478.366,187.457 475.5,186C 473.072,181.069 470.572,176.235 468,171.5C 466.962,162.668 462.795,155.834 455.5,151C 449.617,149.078 445.451,150.911 443,156.5C 440.443,171.073 443.943,183.906 453.5,195C 456.503,196.166 459.17,197.833 461.5,200C 467.055,199.987 472.388,200.987 477.5,203C 479.699,213.319 475.366,218.486 464.5,218.5C 460.404,218.114 456.404,217.281 452.5,216C 448.5,213.333 444.5,210.667 440.5,208C 438.833,207.333 437.167,207.333 435.5,208C 424.625,217.047 413.625,225.88 402.5,234.5 Z"/></g>
<g><path style="opacity:1" fill="#1a1115" d="M 304.5,169.5 C 305.5,169.5 306.5,169.5 307.5,169.5C 307.224,175.94 309.724,178.273 315,176.5C 315.192,178.577 315.692,180.577 316.5,182.5C 317.731,181.349 317.731,180.183 316.5,179C 317.744,178.544 318.577,179.044 319,180.5C 319.484,182.913 319.15,185.246 318,187.5C 317,186.5 316,185.5 315,184.5C 315.099,187.112 315.432,189.779 316,192.5C 316.689,193.357 317.522,194.023 318.5,194.5C 320.764,204.683 322.097,215.016 322.5,225.5C 322.167,225.5 321.833,225.5 321.5,225.5C 319.704,216.78 317.704,208.113 315.5,199.5C 315.184,194.536 313.517,190.203 310.5,186.5C 310.5,186.167 310.5,185.833 310.5,185.5C 310.88,183.302 310.213,181.635 308.5,180.5C 307.999,176.505 306.666,172.838 304.5,169.5 Z"/></g>
<g><path style="opacity:1" fill="#464846" d="M 610.5,183.5 C 605.5,182.167 600.5,182.167 595.5,183.5C 597.031,181.32 599.198,180.32 602,180.5C 604.547,180.762 607.047,181.262 609.5,182C 610.056,182.383 610.389,182.883 610.5,183.5 Z"/></g>
<g><path style="opacity:1" fill="#903730" d="M 308.5,180.5 C 310.213,181.635 310.88,183.302 310.5,185.5C 308.787,184.365 308.12,182.698 308.5,180.5 Z"/></g>
<g><path style="opacity:1" fill="#d2756a" d="M 25.5,182.5 C 25.4828,184.565 25.1495,186.565 24.5,188.5C 23.8333,188.833 23.1667,189.167 22.5,189.5C 22.9348,186.843 23.9348,184.509 25.5,182.5 Z"/></g>
<g><path style="opacity:1" fill="#0c171e" d="M 613.5,187.5 C 614.558,188.6 615.392,189.934 616,191.5C 616.815,196.352 616.648,201.019 615.5,205.5C 615.666,201.486 615.499,197.486 615,193.5C 614.692,192.692 614.192,192.025 613.5,191.5C 614.537,198.867 612.871,205.7 608.5,212C 602.768,215.918 598.268,214.751 595,208.5C 594.411,201.621 594.578,194.954 595.5,188.5C 596.425,187.359 597.259,187.359 598,188.5C 599.751,184.756 602.585,183.756 606.5,185.5C 608.818,186.652 610.652,188.319 612,190.5C 612.232,189.263 612.732,188.263 613.5,187.5 Z"/></g>
<g><path style="opacity:1" fill="#8c342b" d="M 310.5,186.5 C 313.517,190.203 315.184,194.536 315.5,199.5C 313.563,195.289 311.896,190.955 310.5,186.5 Z"/></g>
<g><path style="opacity:1" fill="#8a8a89" d="M 718.5,200.5 C 721.304,199.362 724.304,199.195 727.5,200C 728.056,200.383 728.389,200.883 728.5,201.5C 725.236,200.676 721.902,200.342 718.5,200.5 Z"/></g>
<g><path style="opacity:1" fill="#d0564a" d="M 24.5,188.5 C 22.1116,193.433 20.7783,198.766 20.5,204.5C 19.6851,205.429 18.8518,206.429 18,207.5C 13.106,224.828 11.2726,242.495 12.5,260.5C 11.5067,251.682 11.1734,242.682 11.5,233.5C 13.4059,218.367 17.0725,203.7 22.5,189.5C 23.1667,189.167 23.8333,188.833 24.5,188.5 Z"/></g>
<g><path style="opacity:1" fill="#0d1114" d="M 610.5,183.5 C 611.5,184.833 612.5,186.167 613.5,187.5C 612.732,188.263 612.232,189.263 612,190.5C 610.652,188.319 608.818,186.652 606.5,185.5C 602.585,183.756 599.751,184.756 598,188.5C 597.259,187.359 596.425,187.359 595.5,188.5C 594.578,194.954 594.411,201.621 595,208.5C 598.268,214.751 602.768,215.918 608.5,212C 612.871,205.7 614.537,198.867 613.5,191.5C 614.192,192.025 614.692,192.692 615,193.5C 615.499,197.486 615.666,201.486 615.5,205.5C 613.192,214.309 607.525,218.142 598.5,217C 589.94,210.216 587.107,201.383 590,190.5C 590.935,187.405 592.769,185.071 595.5,183.5C 600.5,182.167 605.5,182.167 610.5,183.5 Z"/></g>
<g><path style="opacity:1" fill="#c84b41" d="M 315.5,199.5 C 317.704,208.113 319.704,216.78 321.5,225.5C 321.859,243.551 321.192,261.551 319.5,279.5C 319.115,286.861 318.448,294.194 317.5,301.5C 317.5,301.833 317.5,302.167 317.5,302.5C 316.836,300.022 316.503,297.355 316.5,294.5C 318.099,277.85 319.432,261.183 320.5,244.5C 321.081,234.88 319.914,225.547 317,216.5C 316.243,210.851 315.743,205.184 315.5,199.5 Z"/></g>
<g><path style="opacity:1" fill="#e43e34" d="M 20.5,204.5 C 19.1266,209.965 17.7932,215.465 16.5,221C 18.5585,225.027 18.8918,229.193 17.5,233.5C 16.8333,233.167 16.1667,232.833 15.5,232.5C 13.7272,250.983 14.7272,269.317 18.5,287.5C 19.8108,290.195 21.4775,292.695 23.5,295C 22.6521,297.77 22.3187,300.603 22.5,303.5C 20.5461,298.239 18.5461,292.906 16.5,287.5C 15.8333,283.833 15.1667,280.167 14.5,276.5C 14.5905,273.848 13.9238,271.515 12.5,269.5C 12.5,266.5 12.5,263.5 12.5,260.5C 11.2726,242.495 13.106,224.828 18,207.5C 18.8518,206.429 19.6851,205.429 20.5,204.5 Z"/></g>
<g><path style="opacity:1" fill="#86332b" d="M 321.5,225.5 C 321.833,225.5 322.167,225.5 322.5,225.5C 322.5,226.833 322.5,228.167 322.5,229.5C 322.5,240.833 322.5,252.167 322.5,263.5C 321.097,268.387 320.431,273.387 320.5,278.5C 320.5,279.167 320.167,279.5 319.5,279.5C 321.192,261.551 321.859,243.551 321.5,225.5 Z"/></g>
<g><path style="opacity:1" fill="#f1473a" d="M 304.5,175.5 C 306.074,176.984 307.407,178.651 308.5,180.5C 308.12,182.698 308.787,184.365 310.5,185.5C 310.5,185.833 310.5,186.167 310.5,186.5C 311.896,190.955 313.563,195.289 315.5,199.5C 315.743,205.184 316.243,210.851 317,216.5C 319.914,225.547 321.081,234.88 320.5,244.5C 319.432,261.183 318.099,277.85 316.5,294.5C 316.503,297.355 316.836,300.022 317.5,302.5C 317.5,303.167 317.5,303.833 317.5,304.5C 319.275,309.74 322.608,313.74 327.5,316.5C 331.3,318.963 333.967,322.296 335.5,326.5C 336.63,328.315 337.296,330.315 337.5,332.5C 335.241,331.656 334.241,329.989 334.5,327.5C 333.325,327.719 332.325,327.386 331.5,326.5C 328.885,323.819 326.719,320.819 325,317.5C 323.927,318.28 322.76,318.113 321.5,317C 319.717,312.501 316.384,310.668 311.5,311.5C 311.5,310.5 311.5,309.5 311.5,308.5C 313.167,308.5 314.833,308.5 316.5,308.5C 315.373,306.002 314.706,303.336 314.5,300.5C 316.557,283.581 316.557,266.081 314.5,248C 316.099,243.916 316.432,239.749 315.5,235.5C 316.504,231.647 317.338,231.647 318,235.5C 318.204,230.092 317.538,224.759 316,219.5C 315.259,218.359 314.425,218.359 313.5,219.5C 312.213,216.291 312.213,213.125 313.5,210C 312.552,209.517 311.552,209.351 310.5,209.5C 311.145,204.507 309.812,200.174 306.5,196.5C 307.718,196.891 308.552,196.224 309,194.5C 309.495,192.527 309.662,190.527 309.5,188.5C 308.5,188.5 307.5,188.5 306.5,188.5C 306.724,183.941 306.058,179.608 304.5,175.5 Z"/></g>
<g><path style="opacity:1" fill="#421717" d="M 322.5,229.5 C 323.167,239.167 323.833,248.833 324.5,258.5C 324.5,259.167 324.5,259.833 324.5,260.5C 323.833,261.5 323.167,262.5 322.5,263.5C 322.5,252.167 322.5,240.833 322.5,229.5 Z"/></g>
<g><path style="opacity:1" fill="#111315" d="M 402.5,234.5 C 373.879,256.452 345.546,278.786 317.5,301.5C 318.448,294.194 319.115,286.861 319.5,279.5C 320.167,279.5 320.5,279.167 320.5,278.5C 321.492,278.672 322.158,278.338 322.5,277.5C 326.143,274.865 329.81,272.199 333.5,269.5C 334.847,268.972 336.181,268.805 337.5,269C 332.512,273.931 327.345,278.764 322,283.5C 321.564,285.847 321.064,288.181 320.5,290.5C 320.434,292.266 321.268,293.266 323,293.5C 335.634,284.095 347.801,274.095 359.5,263.5C 362.044,261.981 364.711,260.648 367.5,259.5C 369.633,256.865 371.966,254.365 374.5,252C 383.424,245.288 392.257,238.454 401,231.5C 401.513,232.527 402.013,233.527 402.5,234.5 Z"/></g>
<g><path style="opacity:1" fill="#76787a" d="M 765.5,247.5 C 765.771,252.434 765.104,257.1 763.5,261.5C 763.362,256.586 764.028,251.919 765.5,247.5 Z"/></g>
<g><path style="opacity:1" fill="#f3f3f0" d="M 790.5,262.5 C 788.4,268.18 787.4,274.18 787.5,280.5C 785.86,288.283 784.86,296.283 784.5,304.5C 783.184,309.837 781.184,315.004 778.5,320C 777.5,320.5 776.5,321 775.5,321.5C 774.513,318.232 774.18,314.898 774.5,311.5C 775.774,298.157 777.107,284.824 778.5,271.5C 780.956,267.274 781.956,262.607 781.5,257.5C 782.247,245.858 782.747,234.192 783,222.5C 784.528,219.583 785.861,216.583 787,213.5C 787.689,212.643 788.522,211.977 789.5,211.5C 792.895,216.291 794.562,221.624 794.5,227.5C 793.165,239.173 791.832,250.84 790.5,262.5 Z"/></g>
<g><path style="opacity:1" fill="#0c1013" d="M 753.5,168.5 C 770,175.667 785.166,185 799,196.5C 807.438,206.988 810.938,218.988 809.5,232.5C 808.826,247.225 807.493,261.892 805.5,276.5C 803.783,279.845 803.116,283.511 803.5,287.5C 802.577,291.064 802.244,294.731 802.5,298.5C 801.111,303.269 800.444,308.269 800.5,313.5C 799.754,317.127 799.087,320.794 798.5,324.5C 796.755,326.033 795.755,328.033 795.5,330.5C 789.488,341.165 780.822,344.499 769.5,340.5C 773.804,339.869 778.137,339.369 782.5,339C 783.813,336.674 785.813,335.341 788.5,335C 792.747,329.579 795.58,323.412 797,316.5C 800.001,287.674 803.501,259.007 807.5,230.5C 807.74,223.167 805.906,216.5 802,210.5C 802.116,205.018 799.616,201.685 794.5,200.5C 794.657,199.127 794.49,197.793 794,196.5C 790.626,195.369 788.126,193.202 786.5,190C 780.216,186.699 774.216,183.032 768.5,179C 767.451,178.508 766.451,178.674 765.5,179.5C 760.084,176.097 754.417,173.097 748.5,170.5C 747.289,169.726 747.289,168.893 748.5,168C 750.197,167.616 751.863,167.782 753.5,168.5 Z"/></g>
<g><path style="opacity:1" fill="#868887" d="M 781.5,257.5 C 781.956,262.607 780.956,267.274 778.5,271.5C 778.87,266.578 779.87,261.911 781.5,257.5 Z"/></g>
<g><path style="opacity:1" fill="#97999b" d="M 790.5,262.5 C 789.979,268.709 788.979,274.709 787.5,280.5C 787.4,274.18 788.4,268.18 790.5,262.5 Z"/></g>
<g><path style="opacity:1" fill="#f8d3ce" d="M 11.5,233.5 C 11.1734,242.682 11.5067,251.682 12.5,260.5C 12.5,263.5 12.5,266.5 12.5,269.5C 12.4095,272.152 13.0762,274.485 14.5,276.5C 15.1667,280.167 15.8333,283.833 16.5,287.5C 11.0543,276.325 8.72098,264.325 9.5,251.5C 9.37991,245.267 10.0466,239.267 11.5,233.5 Z"/></g>
<g><path style="opacity:1" fill="#c3a1a0" d="M 324.5,260.5 C 323.395,265.458 322.395,270.458 321.5,275.5C 321.543,276.416 321.876,277.083 322.5,277.5C 322.158,278.338 321.492,278.672 320.5,278.5C 320.431,273.387 321.097,268.387 322.5,263.5C 323.167,262.5 323.833,261.5 324.5,260.5 Z"/></g>
<g><path style="opacity:1" fill="#e69b93" d="M 12.5,269.5 C 13.9238,271.515 14.5905,273.848 14.5,276.5C 13.0762,274.485 12.4095,272.152 12.5,269.5 Z"/></g>
<g><path style="opacity:1" fill="#0e1316" d="M 740.5,350.5 C 738.883,349.962 737.216,349.629 735.5,349.5C 732.45,348.065 729.117,347.398 725.5,347.5C 723.304,347.505 721.304,347.838 719.5,348.5C 707.966,353.805 703.132,350.138 705,337.5C 706.076,334.921 707.909,333.254 710.5,332.5C 719.129,331.412 727.795,331.412 736.5,332.5C 739.167,332.333 741.833,332.167 744.5,332C 745.416,331.722 746.082,331.222 746.5,330.5C 752.658,328.849 755.992,324.849 756.5,318.5C 757.894,308.646 759.228,298.646 760.5,288.5C 760.931,279.393 761.931,270.393 763.5,261.5C 765.104,257.1 765.771,252.434 765.5,247.5C 768.718,236.1 764.718,228.6 753.5,225C 743.068,224.952 732.735,224.286 722.5,223C 716.012,218.859 713.178,213.025 714,205.5C 714.996,203.34 716.496,201.673 718.5,200.5C 721.902,200.342 725.236,200.676 728.5,201.5C 729.5,202.833 730.5,204.167 731.5,205.5C 731.953,206.458 732.619,207.292 733.5,208C 742.859,208.279 752.192,208.779 761.5,209.5C 763.883,211.189 766.549,212.022 769.5,212C 770.684,209.277 772.018,206.61 773.5,204C 774.409,202.211 774.576,200.377 774,198.5C 765.562,193.525 757.062,188.859 748.5,184.5C 748.489,182.983 747.823,181.816 746.5,181C 746.833,180.833 747.167,180.667 747.5,180.5C 757.078,185.569 766.744,190.235 776.5,194.5C 776.786,196.277 777.453,197.944 778.5,199.5C 776.899,203.312 775.732,207.312 775,211.5C 774.71,214.915 772.877,216.915 769.5,217.5C 767.436,215.739 765.269,215.405 763,216.5C 760.785,214.637 758.285,213.137 755.5,212C 747.833,211.667 740.167,211.333 732.5,211C 730.023,209.357 727.69,207.524 725.5,205.5C 724.28,206.711 723.113,206.711 722,205.5C 720.513,206.155 719.347,207.155 718.5,208.5C 718.833,209.833 719.167,211.167 719.5,212.5C 722.995,214.876 725.995,217.709 728.5,221C 737.174,221.177 745.84,221.177 754.5,221C 762.195,223.075 767.029,227.909 769,235.5C 768.464,248.521 767.63,261.521 766.5,274.5C 766.276,278.519 766.609,282.685 767.5,287C 767.604,289.145 766.937,290.979 765.5,292.5C 765.329,295.919 765.663,299.419 766.5,303C 764.095,304.991 763.428,307.324 764.5,310C 762.667,310.5 761.5,311.667 761,313.5C 760.082,316.063 760.582,318.23 762.5,320C 758.804,325.021 755.138,330.021 751.5,335C 748.648,335.269 745.982,336.103 743.5,337.5C 733.299,335.1 722.966,334.267 712.5,335C 707.102,337.428 705.769,341.261 708.5,346.5C 713.213,347.219 717.88,346.719 722.5,345C 730.009,343.902 737.009,345.235 743.5,349C 742.756,350.039 741.756,350.539 740.5,350.5 Z"/></g>
<g><path style="opacity:1" fill="#989a9d" d="M 731.5,205.5 C 732.756,205.461 733.756,205.961 734.5,207C 742.5,207.333 750.5,207.667 758.5,208C 759.737,208.232 760.737,208.732 761.5,209.5C 752.192,208.779 742.859,208.279 733.5,208C 732.619,207.292 731.953,206.458 731.5,205.5 Z"/></g>
<g><path style="opacity:1" fill="#5b5d5e" d="M 805.5,276.5 C 805.192,280.36 804.525,284.026 803.5,287.5C 803.116,283.511 803.783,279.845 805.5,276.5 Z"/></g>
<g><path style="opacity:1" fill="#9c9f9f" d="M 760.5,288.5 C 759.228,298.646 757.894,308.646 756.5,318.5C 756.627,308.778 757.46,299.111 759,289.5C 759.383,288.944 759.883,288.611 760.5,288.5 Z"/></g>
<g><path style="opacity:1" fill="#989b9b" d="M 802.5,298.5 C 802.556,303.731 801.889,308.731 800.5,313.5C 800.444,308.269 801.111,303.269 802.5,298.5 Z"/></g>
<g><path style="opacity:1" fill="#d05348" d="M 317.5,304.5 C 321.308,308.122 324.641,312.122 327.5,316.5C 322.608,313.74 319.275,309.74 317.5,304.5 Z"/></g>
<g><path style="opacity:1" fill="#e2e2e2" d="M 550.5,324.5 C 549.833,324.5 549.167,324.5 548.5,324.5C 546.485,323.076 544.152,322.41 541.5,322.5C 538.833,321.833 536.167,321.167 533.5,320.5C 521.87,318.874 510.203,317.541 498.5,316.5C 495.5,315.833 492.5,315.167 489.5,314.5C 496.566,314.445 503.566,315.112 510.5,316.5C 512.923,316.406 515.256,315.906 517.5,315C 516.663,313.989 516.33,312.822 516.5,311.5C 519.05,311.561 520.55,312.894 521,315.5C 522.356,314.62 523.856,314.286 525.5,314.5C 525.351,313.448 525.517,312.448 526,311.5C 526.494,313.134 526.66,314.801 526.5,316.5C 533.192,317.666 539.859,319.166 546.5,321C 548.324,321.66 549.657,322.827 550.5,324.5 Z"/></g>
<g><path style="opacity:1" fill="#646666" d="M 489.5,314.5 C 492.5,315.167 495.5,315.833 498.5,316.5C 484.794,315.618 471.127,315.618 457.5,316.5C 457.611,315.883 457.944,315.383 458.5,315C 468.828,314.5 479.161,314.334 489.5,314.5 Z"/></g>
<g><path style="opacity:1" fill="#c4c6c7" d="M 784.5,304.5 C 783.901,309.861 783.067,315.194 782,320.5C 780.762,325.637 778.095,326.637 774,323.5C 773.188,319.311 773.355,315.311 774.5,311.5C 774.18,314.898 774.513,318.232 775.5,321.5C 776.5,321 777.5,320.5 778.5,320C 781.184,315.004 783.184,309.837 784.5,304.5 Z"/></g>
<g><path style="opacity:1" fill="#cf4a41" d="M 23.5,306.5 C 24.8221,306.33 25.9887,306.663 27,307.5C 27.5112,309.878 28.1779,312.212 29,314.5C 33.1002,321.413 36.9335,328.413 40.5,335.5C 35.7759,329.441 31.4426,323.108 27.5,316.5C 27.6567,315.127 27.49,313.793 27,312.5C 24.8123,311.111 23.6456,309.111 23.5,306.5 Z"/></g>
<g><path style="opacity:1" fill="#7e8081" d="M 541.5,322.5 C 544.152,322.41 546.485,323.076 548.5,324.5C 545.848,324.59 543.515,323.924 541.5,322.5 Z"/></g>
<g><path style="opacity:1" fill="#fce8e6" d="M 27.5,316.5 C 31.4426,323.108 35.7759,329.441 40.5,335.5C 41.8333,337.167 43.1667,338.833 44.5,340.5C 46.9092,342.902 48.9092,345.569 50.5,348.5C 46.6606,345.891 43.1606,343.557 40,341.5C 38.043,338.043 35.543,335.043 32.5,332.5C 32.8333,331.833 33.1667,331.167 33.5,330.5C 31.2287,329.637 28.8954,329.637 26.5,330.5C 27.8163,328.061 28.8163,325.561 29.5,323C 27.9872,321.121 27.3205,318.954 27.5,316.5 Z"/></g>
<g><path style="opacity:1" fill="#656769" d="M 798.5,324.5 C 798.245,326.967 797.245,328.967 795.5,330.5C 795.755,328.033 796.755,326.033 798.5,324.5 Z"/></g>
<g><path style="opacity:1" fill="#747777" d="M 746.5,330.5 C 746.082,331.222 745.416,331.722 744.5,332C 741.833,332.167 739.167,332.333 736.5,332.5C 727.795,331.412 719.129,331.412 710.5,332.5C 710.611,331.883 710.944,331.383 711.5,331C 723.162,330.5 734.829,330.333 746.5,330.5 Z"/></g>
<g><path style="opacity:1" fill="#d95147" d="M 335.5,326.5 C 346.926,337.925 357.259,350.259 366.5,363.5C 360.855,357.52 355.188,351.52 349.5,345.5C 348.675,344.614 347.675,344.281 346.5,344.5C 346.649,343.448 346.483,342.448 346,341.5C 343.25,338.302 340.417,335.302 337.5,332.5C 337.296,330.315 336.63,328.315 335.5,326.5 Z"/></g>
<g><path style="opacity:1" fill="#8a8d8c" d="M 542.5,336.5 C 545.746,337.054 548.746,338.054 551.5,339.5C 548.008,339.554 545.008,338.554 542.5,336.5 Z"/></g>
<g><path style="opacity:1" fill="#f8f7f6" d="M 505.5,330.5 C 508.391,331.403 511.391,331.736 514.5,331.5C 518.919,332.972 523.586,333.638 528.5,333.5C 533.044,334.491 537.711,335.491 542.5,336.5C 545.008,338.554 548.008,339.554 551.5,339.5C 598.656,355.524 634.156,385.524 658,429.5C 660.284,436.36 662.951,443.026 666,449.5C 667.44,455.539 668.94,461.539 670.5,467.5C 670.907,473.161 671.24,478.828 671.5,484.5C 670.656,486.759 668.989,487.759 666.5,487.5C 662.798,483.797 658.798,480.463 654.5,477.5C 642.005,464.26 628.005,452.926 612.5,443.5C 610.383,441.345 607.716,440.345 604.5,440.5C 602.485,439.076 600.152,438.41 597.5,438.5C 582.782,435.432 569.115,437.932 556.5,446C 550.672,450.828 545.172,455.995 540,461.5C 531.278,473.79 522.445,485.956 513.5,498C 511.029,498.706 508.695,498.373 506.5,497C 495.504,487.839 483.837,479.672 471.5,472.5C 469.858,471.197 468.191,469.864 466.5,468.5C 460.384,464.89 454.384,461.057 448.5,457C 446.643,455.818 445.643,454.151 445.5,452C 451.262,442.57 457.428,433.403 464,424.5C 469.425,414.257 469.758,403.924 465,393.5C 461.3,389.734 456.8,387.734 451.5,387.5C 440.501,385.787 429.168,384.787 417.5,384.5C 416.272,383.694 415.272,382.694 414.5,381.5C 414.5,376.5 414.5,371.5 414.5,366.5C 421.485,356.003 429.818,346.503 439.5,338C 442.059,336.223 444.726,334.723 447.5,333.5C 449.924,332.97 452.257,332.136 454.5,331C 471.497,330.5 488.497,330.333 505.5,330.5 Z"/></g>
<g><path style="opacity:1" fill="#0c1216" d="M 498.5,316.5 C 510.203,317.541 521.87,318.874 533.5,320.5C 534.347,321.966 535.68,322.8 537.5,323C 536.4,324.023 535.067,324.523 533.5,324.5C 508.769,319.368 483.769,317.535 458.5,319C 456.092,320.622 453.926,322.455 452,324.5C 451.282,323.549 450.449,323.383 449.5,324C 445.249,329.122 446.249,330.455 452.5,328C 472.5,327.333 492.5,327.333 512.5,328C 522.664,328.868 532.664,330.535 542.5,333C 541.57,333.991 540.404,334.491 539,334.5C 535.542,333.714 532.042,333.38 528.5,333.5C 524.081,332.028 519.414,331.362 514.5,331.5C 511.391,331.736 508.391,331.403 505.5,330.5C 488.338,329.338 471.005,329.171 453.5,330C 450.975,330.424 448.975,331.59 447.5,333.5C 444.726,334.723 442.059,336.223 439.5,338C 429.818,346.503 421.485,356.003 414.5,366.5C 411.913,371.483 411.913,376.483 414.5,381.5C 415.272,382.694 416.272,383.694 417.5,384.5C 418.058,385.79 419.058,386.623 420.5,387C 430.828,387.5 441.161,387.666 451.5,387.5C 456.8,387.734 461.3,389.734 465,393.5C 469.758,403.924 469.425,414.257 464,424.5C 457.428,433.403 451.262,442.57 445.5,452C 445.643,454.151 446.643,455.818 448.5,457C 454.384,461.057 460.384,464.89 466.5,468.5C 467.028,469.847 467.195,471.181 467,472.5C 463.888,470.725 461.055,468.558 458.5,466C 455.056,465.889 452.723,464.223 451.5,461C 444.578,460.289 441.078,456.456 441,449.5C 440.586,449.043 440.086,448.709 439.5,448.5C 437.429,450.185 435.429,451.852 433.5,453.5C 435.139,449.747 435.806,445.747 435.5,441.5C 441.361,431.46 447.861,421.793 455,412.5C 456.418,407.572 456.751,402.572 456,397.5C 453.562,394.802 450.729,392.635 447.5,391C 435.833,390.667 424.167,390.333 412.5,390C 402.666,385.156 399.166,377.322 402,366.5C 406.788,355.029 413.955,345.195 423.5,337C 429.884,331.615 436.55,326.615 443.5,322C 447.863,319.316 452.529,317.483 457.5,316.5C 471.127,315.618 484.794,315.618 498.5,316.5 Z"/></g>
<g><path style="opacity:1" fill="#606362" d="M 514.5,331.5 C 519.414,331.362 524.081,332.028 528.5,333.5C 523.586,333.638 518.919,332.972 514.5,331.5 Z"/></g>
<g><path style="opacity:1" fill="#4b4d4f" d="M 505.5,330.5 C 488.497,330.333 471.497,330.5 454.5,331C 452.257,332.136 449.924,332.97 447.5,333.5C 448.975,331.59 450.975,330.424 453.5,330C 471.005,329.171 488.338,329.338 505.5,330.5 Z"/></g>
<g><path style="opacity:1" fill="#3a3d40" d="M 719.5,348.5 C 721.304,347.838 723.304,347.505 725.5,347.5C 729.117,347.398 732.45,348.065 735.5,349.5C 730.195,348.806 724.862,348.472 719.5,348.5 Z"/></g>
<g><path style="opacity:1" fill="#cc5145" d="M 44.5,340.5 C 45.675,340.281 46.675,340.614 47.5,341.5C 52.4844,347.817 57.8177,353.817 63.5,359.5C 58.8927,356.232 54.5594,352.565 50.5,348.5C 48.9092,345.569 46.9092,342.902 44.5,340.5 Z"/></g>
<g><path style="opacity:1" fill="#898d8e" d="M 741.5,351.5 C 742.634,353.966 742.801,356.633 742,359.5C 741.617,360.056 741.117,360.389 740.5,360.5C 741.299,357.57 741.632,354.57 741.5,351.5 Z"/></g>
<g><path style="opacity:1" fill="#d35044" d="M 366.5,363.5 C 371.533,368.532 376.199,373.865 380.5,379.5C 376.143,375.308 371.643,371.308 367,367.5C 366.51,366.207 366.343,364.873 366.5,363.5 Z"/></g>
<g><path style="opacity:1" fill="#b0b2b1" d="M 414.5,366.5 C 414.5,371.5 414.5,376.5 414.5,381.5C 411.913,376.483 411.913,371.483 414.5,366.5 Z"/></g>
<g><path style="opacity:1" fill="#ce4e41" d="M 94.5,380.5 C 97.2165,380.678 99.8832,381.178 102.5,382C 106.872,385.349 111.539,387.849 116.5,389.5C 112.166,389.449 108.5,387.949 105.5,385C 101.657,383.639 97.9906,382.139 94.5,380.5 Z"/></g>
<g><path style="opacity:1" fill="#d45348" d="M 380.5,379.5 C 390.392,390.272 400.059,401.272 409.5,412.5C 408.761,412.631 408.094,412.464 407.5,412C 401.004,404.504 394.171,397.337 387,390.5C 383.807,387.395 381.64,383.729 380.5,379.5 Z"/></g>
<g><path style="opacity:1" fill="#acadaf" d="M 417.5,384.5 C 429.168,384.787 440.501,385.787 451.5,387.5C 441.161,387.666 430.828,387.5 420.5,387C 419.058,386.623 418.058,385.79 417.5,384.5 Z"/></g>
<g><path style="opacity:1" fill="#848789" d="M 723.5,384.5 C 724.167,384.5 724.833,384.5 725.5,384.5C 724.737,385.268 723.737,385.768 722.5,386C 708.122,386.2 693.789,386.7 679.5,387.5C 679.611,386.883 679.944,386.383 680.5,386C 694.878,385.8 709.211,385.3 723.5,384.5 Z"/></g>
<g><path style="opacity:1" fill="#df857e" d="M 122.5,391.5 C 123.833,391.5 125.167,391.5 126.5,391.5C 127.167,392.167 127.833,392.833 128.5,393.5C 126.102,393.741 124.102,393.074 122.5,391.5 Z"/></g>
<g><path style="opacity:1" fill="#e59389" d="M 128.5,393.5 C 134.386,393.98 140.052,394.98 145.5,396.5C 139.497,396.667 133.83,395.667 128.5,393.5 Z"/></g>
<g><path style="opacity:1" fill="#ec9c99" d="M 146.5,396.5 C 153.167,396.5 159.833,396.5 166.5,396.5C 166.946,399.01 166.28,401.01 164.5,402.5C 165.038,400.883 165.371,399.216 165.5,397.5C 158.978,397.823 152.645,397.49 146.5,396.5 Z"/></g>
<g><path style="opacity:1" fill="#dc4236" d="M 126.5,391.5 C 140.974,394.809 155.641,396.142 170.5,395.5C 170.725,397.716 169.892,399.383 168,400.5C 167.667,403.167 167.333,405.833 167,408.5C 166.667,408.167 166.333,407.833 166,407.5C 164.244,409.407 162.744,411.407 161.5,413.5C 161.5,412.5 161.5,411.5 161.5,410.5C 161.733,407.458 162.733,404.792 164.5,402.5C 166.28,401.01 166.946,399.01 166.5,396.5C 159.833,396.5 153.167,396.5 146.5,396.5C 146.167,396.5 145.833,396.5 145.5,396.5C 140.052,394.98 134.386,393.98 128.5,393.5C 127.833,392.833 127.167,392.167 126.5,391.5 Z"/></g>
<g><path style="opacity:1" fill="#0f1316" d="M 626.5,381.5 C 633.263,387.923 639.263,394.923 644.5,402.5C 646.002,403.083 647.335,403.916 648.5,405C 647.72,406.073 647.887,407.24 649,408.5C 652.918,413.365 656.752,418.365 660.5,423.5C 659.515,425.098 659.349,426.765 660,428.5C 661.842,432.187 664.175,435.52 667,438.5C 667.203,444.759 668.87,450.092 672,454.5C 672.762,465.312 674.929,475.812 678.5,486C 676.167,488.167 673.833,490.333 671.5,492.5C 669.742,491.872 668.242,490.872 667,489.5C 665.443,490.205 664.277,489.539 663.5,487.5C 664.233,486.913 665.233,486.913 666.5,487.5C 668.989,487.759 670.656,486.759 671.5,484.5C 672.163,482.527 672.496,480.361 672.5,478C 672.621,474.218 671.954,470.718 670.5,467.5C 668.94,461.539 667.44,455.539 666,449.5C 662.951,443.026 660.284,436.36 658,429.5C 634.156,385.524 598.656,355.524 551.5,339.5C 548.746,338.054 545.746,337.054 542.5,336.5C 542.62,335.414 543.287,334.747 544.5,334.5C 552.524,336.576 560.524,338.909 568.5,341.5C 569.086,341.291 569.586,340.957 570,340.5C 570.465,341.931 571.299,343.097 572.5,344C 578.728,346.143 584.394,349.309 589.5,353.5C 589.402,352.384 589.902,351.384 591,350.5C 592.888,351.777 594.888,352.777 597,353.5C 597.388,352.572 598.055,351.905 599,351.5C 600.563,352.102 600.396,352.935 598.5,354C 599.1,355.676 600.433,357.343 602.5,359C 603.033,361.602 604.7,363.935 607.5,366C 611.077,367.26 614.411,368.927 617.5,371C 618.191,372.067 618.691,373.234 619,374.5C 622.025,376.361 624.525,378.694 626.5,381.5 Z"/></g>
<g><path style="opacity:1" fill="#d26d64" d="M 411.5,415.5 C 413.914,416.911 415.581,418.911 416.5,421.5C 414.086,420.089 412.419,418.089 411.5,415.5 Z"/></g>
<g><path style="opacity:1" fill="#747474" d="M 669.5,416.5 C 671.245,418.033 672.245,420.033 672.5,422.5C 670.755,420.967 669.755,418.967 669.5,416.5 Z"/></g>
<g><path style="opacity:1" fill="#d3594f" d="M 161.5,410.5 C 161.5,411.5 161.5,412.5 161.5,413.5C 160.631,415.717 160.298,418.05 160.5,420.5C 158.293,424.378 156.293,428.378 154.5,432.5C 155.359,424.605 157.692,417.272 161.5,410.5 Z"/></g>
<g><path style="opacity:1" fill="#f84336" d="M 224.5,101.5 C 225.167,101.5 225.833,101.5 226.5,101.5C 227.71,101.932 228.71,102.599 229.5,103.5C 229.856,104.87 230.69,105.87 232,106.5C 234.895,107.409 237.728,108.409 240.5,109.5C 243.791,112.376 247.291,115.043 251,117.5C 251.645,118.646 252.478,119.646 253.5,120.5C 252.833,121.167 252.167,121.833 251.5,122.5C 253.396,123.466 255.396,123.799 257.5,123.5C 257.5,124.833 257.5,126.167 257.5,127.5C 262.741,125.454 266.075,127.121 267.5,132.5C 271.737,132.897 274.737,135.064 276.5,139C 280.614,141.284 284.28,144.117 287.5,147.5C 287.709,148.922 288.209,150.255 289,151.5C 293.52,155.502 297.353,159.835 300.5,164.5C 300.427,166.027 301.094,167.027 302.5,167.5C 302.584,170.327 303.25,172.994 304.5,175.5C 306.058,179.608 306.724,183.941 306.5,188.5C 307.5,188.5 308.5,188.5 309.5,188.5C 309.662,190.527 309.495,192.527 309,194.5C 308.552,196.224 307.718,196.891 306.5,196.5C 309.812,200.174 311.145,204.507 310.5,209.5C 311.552,209.351 312.552,209.517 313.5,210C 312.213,213.125 312.213,216.291 313.5,219.5C 314.425,218.359 315.259,218.359 316,219.5C 317.538,224.759 318.204,230.092 318,235.5C 317.338,231.647 316.504,231.647 315.5,235.5C 316.432,239.749 316.099,243.916 314.5,248C 316.557,266.081 316.557,283.581 314.5,300.5C 314.706,303.336 315.373,306.002 316.5,308.5C 314.833,308.5 313.167,308.5 311.5,308.5C 311.5,309.5 311.5,310.5 311.5,311.5C 316.384,310.668 319.717,312.501 321.5,317C 322.76,318.113 323.927,318.28 325,317.5C 326.719,320.819 328.885,323.819 331.5,326.5C 332.325,327.386 333.325,327.719 334.5,327.5C 334.241,329.989 335.241,331.656 337.5,332.5C 340.417,335.302 343.25,338.302 346,341.5C 346.483,342.448 346.649,343.448 346.5,344.5C 347.675,344.281 348.675,344.614 349.5,345.5C 355.188,351.52 360.855,357.52 366.5,363.5C 366.343,364.873 366.51,366.207 367,367.5C 371.643,371.308 376.143,375.308 380.5,379.5C 381.64,383.729 383.807,387.395 387,390.5C 394.171,397.337 401.004,404.504 407.5,412C 408.094,412.464 408.761,412.631 409.5,412.5C 410.906,412.973 411.573,413.973 411.5,415.5C 412.419,418.089 414.086,420.089 416.5,421.5C 419.265,424.66 422.265,427.66 425.5,430.5C 426.63,431.622 427.297,432.956 427.5,434.5C 427.092,437.599 428.259,439.933 431,441.5C 431.63,448.91 428.964,454.91 423,459.5C 420.899,465.441 417.399,470.441 412.5,474.5C 409.31,479.546 406.644,484.88 404.5,490.5C 403.326,491.514 402.66,492.847 402.5,494.5C 401.094,494.973 400.427,495.973 400.5,497.5C 399.504,497.414 398.671,497.748 398,498.5C 397.079,501.336 395.912,504.002 394.5,506.5C 393.833,506.5 393.5,506.833 393.5,507.5C 391.45,510.213 388.95,512.547 386,514.5C 379.31,523.905 372.643,533.239 366,542.5C 362.144,548.889 358.311,555.222 354.5,561.5C 353.024,562.733 351.357,563.733 349.5,564.5C 347.912,563.99 346.745,562.99 346,561.5C 344.771,563.947 343.271,564.113 341.5,562C 337.35,557.712 334.516,552.878 333,547.5C 333.414,547.957 333.914,548.291 334.5,548.5C 335.89,546.505 335.39,545.172 333,544.5C 331.699,545.893 330.199,546.393 328.5,546C 326.877,543.92 325.377,541.754 324,539.5C 323.329,538.748 322.496,538.414 321.5,538.5C 312.586,527.906 303.586,517.239 294.5,506.5C 291.098,500.924 287.098,495.757 282.5,491C 280.527,490.505 278.527,490.338 276.5,490.5C 275.833,490.5 275.167,490.5 274.5,490.5C 273.733,491.172 273.066,492.005 272.5,493C 273.498,577.429 273.832,661.929 273.5,746.5C 273.167,747.167 272.833,747.833 272.5,748.5C 271.542,748.047 270.708,747.381 270,746.5C 264.37,749.058 259.204,752.224 254.5,756C 225.167,756.667 195.833,756.667 166.5,756C 165.579,754.244 164.412,754.077 163,755.5C 160.276,754.313 157.443,753.647 154.5,753.5C 154.167,752.167 153.833,750.833 153.5,749.5C 152.2,646.524 152.367,543.524 154,440.5C 154.414,440.043 154.914,439.709 155.5,439.5C 157.372,433.219 159.038,426.885 160.5,420.5C 160.298,418.05 160.631,415.717 161.5,413.5C 162.744,411.407 164.244,409.407 166,407.5C 166.333,407.833 166.667,408.167 167,408.5C 167.333,405.833 167.667,403.167 168,400.5C 169.892,399.383 170.725,397.716 170.5,395.5C 155.641,396.142 140.974,394.809 126.5,391.5C 125.167,391.5 123.833,391.5 122.5,391.5C 120.421,391.029 118.421,390.363 116.5,389.5C 111.539,387.849 106.872,385.349 102.5,382C 99.8832,381.178 97.2165,380.678 94.5,380.5C 83.0674,375.058 72.7341,368.058 63.5,359.5C 57.8177,353.817 52.4844,347.817 47.5,341.5C 46.675,340.614 45.675,340.281 44.5,340.5C 43.1667,338.833 41.8333,337.167 40.5,335.5C 36.9335,328.413 33.1002,321.413 29,314.5C 28.1779,312.212 27.5112,309.878 27,307.5C 25.9887,306.663 24.8221,306.33 23.5,306.5C 23.4431,305.391 23.1098,304.391 22.5,303.5C 22.3187,300.603 22.6521,297.77 23.5,295C 21.4775,292.695 19.8108,290.195 18.5,287.5C 14.7272,269.317 13.7272,250.983 15.5,232.5C 16.1667,232.833 16.8333,233.167 17.5,233.5C 18.8918,229.193 18.5585,225.027 16.5,221C 17.7932,215.465 19.1266,209.965 20.5,204.5C 20.7783,198.766 22.1116,193.433 24.5,188.5C 28.9648,185.448 31.1314,181.115 31,175.5C 36.2679,165.219 42.7679,155.719 50.5,147C 51.448,146.517 52.448,146.351 53.5,146.5C 53.2606,144.533 53.5939,142.699 54.5,141C 59.1633,137.17 63.4967,133.003 67.5,128.5C 69.0453,127.548 70.712,127.215 72.5,127.5C 72.5,126.5 72.5,125.5 72.5,124.5C 74.5643,124.313 76.5643,123.813 78.5,123C 79.1043,120.532 80.4376,118.532 82.5,117C 86.638,114.685 90.3047,111.852 93.5,108.5C 93.5,107.833 93.8333,107.5 94.5,107.5C 95.8734,107.657 97.2068,107.49 98.5,107C 103.137,104.197 107.804,101.697 112.5,99.5C 121.445,97.1768 130.445,95.1768 139.5,93.5C 160.589,91.8588 181.589,92.3588 202.5,95C 209.752,97.4791 217.085,99.6458 224.5,101.5 Z"/></g>
<g><path style="opacity:1" fill="#838587" d="M 597.5,438.5 C 600.152,438.41 602.485,439.076 604.5,440.5C 601.848,440.59 599.515,439.924 597.5,438.5 Z"/></g>
<g><path style="opacity:1" fill="#a5a6a7" d="M 604.5,440.5 C 607.716,440.345 610.383,441.345 612.5,443.5C 609.603,442.871 606.936,441.871 604.5,440.5 Z"/></g>
<g><path style="opacity:1" fill="#515252" d="M 678.5,438.5 C 680.806,442.085 682.139,446.085 682.5,450.5C 680.194,446.915 678.861,442.915 678.5,438.5 Z"/></g>
<g><path style="opacity:1" fill="#db776f" d="M 152.5,443.5 C 152.249,448.507 151.916,453.507 151.5,458.5C 150.501,554.665 150.167,650.999 150.5,747.5C 149.833,747.5 149.5,747.167 149.5,746.5C 149.333,647.833 149.5,549.166 150,450.5C 151.319,448.75 151.819,446.75 151.5,444.5C 151.5,443.833 151.833,443.5 152.5,443.5 Z"/></g>
<g><path style="opacity:1" fill="#ca4c43" d="M 427.5,434.5 C 430.606,436.598 432.939,439.265 434.5,442.5C 434.477,444.927 433.977,447.26 433,449.5C 428.856,455.493 425.022,461.493 421.5,467.5C 417.024,472.952 413.024,478.619 409.5,484.5C 407.833,486.5 406.167,488.5 404.5,490.5C 406.644,484.88 409.31,479.546 412.5,474.5C 417.399,470.441 420.899,465.441 423,459.5C 428.964,454.91 431.63,448.91 431,441.5C 428.259,439.933 427.092,437.599 427.5,434.5 Z"/></g>
<g><path style="opacity:1" fill="#0d161e" d="M 697.5,382.5 C 689.915,380.853 682.748,381.853 676,385.5C 675.667,385.167 675.333,384.833 675,384.5C 670.34,389.501 666.007,394.834 662,400.5C 661.125,401.873 660.625,403.373 660.5,405C 666.801,417.563 672.135,430.563 676.5,444C 674.887,447.281 675.72,449.781 679,451.5C 686.183,473.711 688.517,496.378 686,519.5C 684.174,521.074 682.007,521.907 679.5,522C 677.346,523.32 675.846,525.153 675,527.5C 674.5,600.833 674.333,674.166 674.5,747.5C 675.5,747.5 676.5,747.5 677.5,747.5C 677.34,749.153 676.674,750.486 675.5,751.5C 675.585,750.005 674.919,749.005 673.5,748.5C 671.922,751.499 669.589,753.666 666.5,755C 631.833,755.667 597.167,755.667 562.5,755C 559.338,753.078 557.338,750.245 556.5,746.5C 556.709,745.914 557.043,745.414 557.5,745C 555.931,675.242 555.098,605.409 555,535.5C 554.347,532.193 552.681,529.527 550,527.5C 550.019,529.107 550.185,530.774 550.5,532.5C 547.049,528.598 542.716,525.931 537.5,524.5C 534.696,523.362 531.696,523.195 528.5,524C 525.975,524.424 523.975,525.59 522.5,527.5C 516.541,531.625 511.374,536.625 507,542.5C 483,574.5 459,606.5 435,638.5C 428.786,647.462 420.286,650.962 409.5,649C 407.359,647.692 405.359,646.192 403.5,644.5C 386.286,620.781 368.119,597.781 349,575.5C 348.209,574.255 347.709,572.922 347.5,571.5C 348.167,571.5 348.833,571.5 349.5,571.5C 350.75,571.577 351.583,572.244 352,573.5C 352.766,568.64 355.1,564.64 359,561.5C 358.761,557.816 360.261,555.149 363.5,553.5C 364.429,552.311 364.762,550.978 364.5,549.5C 368.79,546.902 371.623,543.235 373,538.5C 374,536.833 375.333,535.5 377,534.5C 377.494,532.866 377.66,531.199 377.5,529.5C 381.192,524.122 385.359,519.122 390,514.5C 391.18,512.14 392.347,509.807 393.5,507.5C 393.5,506.833 393.833,506.5 394.5,506.5C 397.225,504.01 399.225,501.01 400.5,497.5C 400.427,495.973 401.094,494.973 402.5,494.5C 406.411,492.258 408.744,488.925 409.5,484.5C 410.473,484.013 411.473,483.513 412.5,483C 414.909,479.626 417.575,476.459 420.5,473.5C 421.348,471.591 421.682,469.591 421.5,467.5C 426.031,464.794 428.865,460.794 430,455.5C 431.113,454.695 432.279,454.028 433.5,453.5C 435.429,451.852 437.429,450.185 439.5,448.5C 440.086,448.709 440.586,449.043 441,449.5C 441.078,456.456 444.578,460.289 451.5,461C 452.723,464.223 455.056,465.889 458.5,466C 461.055,468.558 463.888,470.725 467,472.5C 467.195,471.181 467.028,469.847 466.5,468.5C 468.191,469.864 469.858,471.197 471.5,472.5C 467.238,473.193 466.905,474.026 470.5,475C 471.485,477.921 473.485,480.421 476.5,482.5C 477.776,483.645 479.109,483.645 480.5,482.5C 481.771,484.829 483.771,485.995 486.5,486C 489.979,489.391 493.979,492.057 498.5,494C 500.394,495.079 500.727,496.413 499.5,498C 503.32,500.668 507.153,502.501 511,503.5C 515.32,502.513 517.987,499.847 519,495.5C 520.848,493.321 523.015,491.487 525.5,490C 527.071,482.73 531.404,477.397 538.5,474C 537.833,473.667 537.167,473.333 536.5,473C 538.414,471.587 539.747,469.753 540.5,467.5C 544.881,466.186 546.548,463.52 545.5,459.5C 548.22,459.369 550.887,458.869 553.5,458C 552.446,456.612 552.28,455.112 553,453.5C 555.349,452.16 557.683,450.826 560,449.5C 562.45,450.841 563.95,450.008 564.5,447C 563.366,445.984 563.699,445.317 565.5,445C 583.443,439.13 600.61,440.63 617,449.5C 621.832,452.998 626.665,456.498 631.5,460C 635.925,463.753 639.592,468.087 642.5,473C 645.952,473.892 648.952,475.558 651.5,478C 652.749,478.74 653.749,478.573 654.5,477.5C 658.798,480.463 662.798,483.797 666.5,487.5C 665.233,486.913 664.233,486.913 663.5,487.5C 664.277,489.539 665.443,490.205 667,489.5C 668.242,490.872 669.742,491.872 671.5,492.5C 673.833,490.333 676.167,488.167 678.5,486C 674.929,475.812 672.762,465.312 672,454.5C 668.87,450.092 667.203,444.759 667,438.5C 664.175,435.52 661.842,432.187 660,428.5C 659.349,426.765 659.515,425.098 660.5,423.5C 656.752,418.365 652.918,413.365 649,408.5C 647.887,407.24 647.72,406.073 648.5,405C 647.335,403.916 646.002,403.083 644.5,402.5C 639.263,394.923 633.263,387.923 626.5,381.5C 627.388,378.946 627.721,376.279 627.5,373.5C 630.394,373.556 633.061,374.39 635.5,376C 636.191,377.067 636.691,378.234 637,379.5C 637.333,379.167 637.667,378.833 638,378.5C 642.251,383.357 646.251,388.357 650,393.5C 650.333,393.167 650.667,392.833 651,392.5C 651.308,393.308 651.808,393.975 652.5,394.5C 653.914,393.376 655.414,392.376 657,391.5C 657.333,391.833 657.667,392.167 658,392.5C 660.106,390.623 661.439,388.29 662,385.5C 666.254,383.257 669.754,380.924 672.5,378.5C 673.244,377.009 673.91,375.509 674.5,374C 677.996,373.305 681.33,373.805 684.5,375.5C 687.885,373.03 691.718,372.03 696,372.5C 705.536,372.947 715.703,373.114 726.5,373C 724.5,373.333 722.5,373.667 720.5,374C 722.433,374.251 724.266,374.751 726,375.5C 726.414,375.043 726.914,374.709 727.5,374.5C 727.126,375.771 727.792,376.938 729.5,378C 726.953,378.66 724.453,378.493 722,377.5C 720.238,377.944 720.405,378.444 722.5,379C 719.313,379.889 716.147,380.722 713,381.5C 707.25,380.359 701.416,380.193 695.5,381C 696.416,381.278 697.082,381.778 697.5,382.5 Z"/></g>
<g><path style="opacity:1" fill="#341011" d="M 435.5,441.5 C 435.806,445.747 435.139,449.747 433.5,453.5C 432.279,454.028 431.113,454.695 430,455.5C 428.865,460.794 426.031,464.794 421.5,467.5C 425.022,461.493 428.856,455.493 433,449.5C 433.977,447.26 434.477,444.927 434.5,442.5C 434.5,441.833 434.833,441.5 435.5,441.5 Z"/></g>
<g><path style="opacity:1" fill="#131619" d="M 597.5,438.5 C 599.515,439.924 601.848,440.59 604.5,440.5C 606.936,441.871 609.603,442.871 612.5,443.5C 628.005,452.926 642.005,464.26 654.5,477.5C 653.749,478.573 652.749,478.74 651.5,478C 648.952,475.558 645.952,473.892 642.5,473C 639.592,468.087 635.925,463.753 631.5,460C 626.665,456.498 621.832,452.998 617,449.5C 600.61,440.63 583.443,439.13 565.5,445C 563.699,445.317 563.366,445.984 564.5,447C 563.95,450.008 562.45,450.841 560,449.5C 557.683,450.826 555.349,452.16 553,453.5C 552.28,455.112 552.446,456.612 553.5,458C 550.887,458.869 548.22,459.369 545.5,459.5C 546.548,463.52 544.881,466.186 540.5,467.5C 539.747,469.753 538.414,471.587 536.5,473C 537.167,473.333 537.833,473.667 538.5,474C 531.404,477.397 527.071,482.73 525.5,490C 523.015,491.487 520.848,493.321 519,495.5C 517.987,499.847 515.32,502.513 511,503.5C 507.153,502.501 503.32,500.668 499.5,498C 500.727,496.413 500.394,495.079 498.5,494C 493.979,492.057 489.979,489.391 486.5,486C 483.771,485.995 481.771,484.829 480.5,482.5C 479.109,483.645 477.776,483.645 476.5,482.5C 473.485,480.421 471.485,477.921 470.5,475C 466.905,474.026 467.238,473.193 471.5,472.5C 483.837,479.672 495.504,487.839 506.5,497C 508.695,498.373 511.029,498.706 513.5,498C 522.445,485.956 531.278,473.79 540,461.5C 545.172,455.995 550.672,450.828 556.5,446C 569.115,437.932 582.782,435.432 597.5,438.5 Z"/></g>
<g><path style="opacity:1" fill="#6a6d6d" d="M 685.5,463.5 C 687.074,465.102 687.741,467.102 687.5,469.5C 685.926,467.898 685.259,465.898 685.5,463.5 Z"/></g>
<g><path style="opacity:1" fill="#848688" d="M 670.5,467.5 C 671.954,470.718 672.621,474.218 672.5,478C 672.496,480.361 672.163,482.527 671.5,484.5C 671.24,478.828 670.907,473.161 670.5,467.5 Z"/></g>
<g><path style="opacity:1" fill="#2f0e0f" d="M 421.5,467.5 C 421.682,469.591 421.348,471.591 420.5,473.5C 417.575,476.459 414.909,479.626 412.5,483C 411.473,483.513 410.473,484.013 409.5,484.5C 413.024,478.619 417.024,472.952 421.5,467.5 Z"/></g>
<g><path style="opacity:1" fill="#381011" d="M 409.5,484.5 C 408.744,488.925 406.411,492.258 402.5,494.5C 402.66,492.847 403.326,491.514 404.5,490.5C 406.167,488.5 407.833,486.5 409.5,484.5 Z"/></g>
<g><path style="opacity:1" fill="#5f1818" d="M 400.5,497.5 C 399.225,501.01 397.225,504.01 394.5,506.5C 395.912,504.002 397.079,501.336 398,498.5C 398.671,497.748 399.504,497.414 400.5,497.5 Z"/></g>
<g><path style="opacity:1" fill="#828686" d="M 537.5,524.5 C 532.198,524.119 527.198,525.119 522.5,527.5C 523.975,525.59 525.975,524.424 528.5,524C 531.696,523.195 534.696,523.362 537.5,524.5 Z"/></g>
<g><path style="opacity:1" fill="#fae4df" d="M 294.5,506.5 C 303.586,517.239 312.586,527.906 321.5,538.5C 324.47,543.463 327.804,548.13 331.5,552.5C 327.816,549.315 324.316,545.982 321,542.5C 319.62,539.656 318.12,536.99 316.5,534.5C 313.989,533.24 311.656,531.573 309.5,529.5C 309.357,532.545 308.024,532.878 305.5,530.5C 306.791,525.342 305.124,521.342 300.5,518.5C 298.002,514.692 296.002,510.692 294.5,506.5 Z"/></g>
<g><path style="opacity:1" fill="#fedfda" d="M 151.5,444.5 C 151.819,446.75 151.319,448.75 150,450.5C 149.5,549.166 149.333,647.833 149.5,746.5C 148.334,646.668 148.168,546.668 149,446.5C 149.708,445.619 150.542,444.953 151.5,444.5 Z"/></g>
<g><path style="opacity:1" fill="#b5433e" d="M 393.5,507.5 C 392.347,509.807 391.18,512.14 390,514.5C 385.359,519.122 381.192,524.122 377.5,529.5C 373.16,536.237 368.827,542.903 364.5,549.5C 360.763,553.231 357.43,557.231 354.5,561.5C 358.311,555.222 362.144,548.889 366,542.5C 372.643,533.239 379.31,523.905 386,514.5C 388.95,512.547 391.45,510.213 393.5,507.5 Z"/></g>
<g><path style="opacity:1" fill="#0b0f12" d="M 675.5,751.5 C 674.167,753.167 672.833,754.833 671.5,756.5C 669.421,756.971 667.421,757.637 665.5,758.5C 630.457,758.82 595.457,758.487 560.5,757.5C 556.861,754.86 554.195,751.527 552.5,747.5C 552.667,677.833 552.5,608.166 552,538.5C 551.495,536.482 550.995,534.482 550.5,532.5C 550.185,530.774 550.019,529.107 550,527.5C 552.681,529.527 554.347,532.193 555,535.5C 555.098,605.409 555.931,675.242 557.5,745C 557.043,745.414 556.709,745.914 556.5,746.5C 557.338,750.245 559.338,753.078 562.5,755C 597.167,755.667 631.833,755.667 666.5,755C 669.589,753.666 671.922,751.499 673.5,748.5C 674.919,749.005 675.585,750.005 675.5,751.5 Z"/></g>
<g><path style="opacity:1" fill="#2a1010" d="M 377.5,529.5 C 377.66,531.199 377.494,532.866 377,534.5C 375.333,535.5 374,536.833 373,538.5C 371.623,543.235 368.79,546.902 364.5,549.5C 368.827,542.903 373.16,536.237 377.5,529.5 Z"/></g>
<g><path style="opacity:1" fill="#e4382e" d="M 160.5,420.5 C 159.038,426.885 157.372,433.219 155.5,439.5C 154.914,439.709 154.414,440.043 154,440.5C 152.367,543.524 152.2,646.524 153.5,749.5C 152.778,749.082 152.278,748.416 152,747.5C 151.5,651.167 151.333,554.834 151.5,458.5C 151.916,453.507 152.249,448.507 152.5,443.5C 152.808,439.64 153.475,435.974 154.5,432.5C 156.293,428.378 158.293,424.378 160.5,420.5 Z"/></g>
<g><path style="opacity:1" fill="#2a0f0e" d="M 364.5,549.5 C 364.762,550.978 364.429,552.311 363.5,553.5C 360.261,555.149 358.761,557.816 359,561.5C 355.1,564.64 352.766,568.64 352,573.5C 351.583,572.244 350.75,571.577 349.5,571.5C 351.143,568.213 352.81,564.88 354.5,561.5C 357.43,557.231 360.763,553.231 364.5,549.5 Z"/></g>
<g><path style="opacity:1" fill="#d84339" d="M 321.5,538.5 C 322.496,538.414 323.329,538.748 324,539.5C 325.377,541.754 326.877,543.92 328.5,546C 330.199,546.393 331.699,545.893 333,544.5C 335.39,545.172 335.89,546.505 334.5,548.5C 333.914,548.291 333.414,547.957 333,547.5C 334.516,552.878 337.35,557.712 341.5,562C 343.271,564.113 344.771,563.947 346,561.5C 346.745,562.99 347.912,563.99 349.5,564.5C 351.357,563.733 353.024,562.733 354.5,561.5C 352.81,564.88 351.143,568.213 349.5,571.5C 348.833,571.5 348.167,571.5 347.5,571.5C 342.167,565.167 336.833,558.833 331.5,552.5C 327.804,548.13 324.47,543.463 321.5,538.5 Z"/></g>
<g><path style="opacity:1" fill="#d33f36" d="M 151.5,458.5 C 151.333,554.834 151.5,651.167 152,747.5C 152.278,748.416 152.778,749.082 153.5,749.5C 153.833,750.833 154.167,752.167 154.5,753.5C 154.5,753.833 154.5,754.167 154.5,754.5C 152.412,752.664 151.079,750.331 150.5,747.5C 150.167,650.999 150.501,554.665 151.5,458.5 Z"/></g>
<g><path style="opacity:1" fill="#db3328" d="M 274.5,490.5 C 274.833,576.002 274.499,661.335 273.5,746.5C 273.832,661.929 273.498,577.429 272.5,493C 273.066,492.005 273.733,491.172 274.5,490.5 Z"/></g>
<g><path style="opacity:1" fill="#070c0f" d="M 697.5,382.5 C 705.375,383.045 713.208,383.045 721,382.5C 722.301,382.639 723.134,383.305 723.5,384.5C 709.211,385.3 694.878,385.8 680.5,386C 679.944,386.383 679.611,386.883 679.5,387.5C 673.52,391.315 668.686,396.315 665,402.5C 665.358,407.413 666.858,412.079 669.5,416.5C 669.755,418.967 670.755,420.967 672.5,422.5C 675.013,427.547 677.013,432.88 678.5,438.5C 678.861,442.915 680.194,446.915 682.5,450.5C 683.698,454.767 684.698,459.1 685.5,463.5C 685.259,465.898 685.926,467.898 687.5,469.5C 691.117,485.608 692.283,501.941 691,518.5C 689.945,521.056 688.112,522.723 685.5,523.5C 682.808,524.009 680.308,525.009 678,526.5C 677.5,600.166 677.333,673.833 677.5,747.5C 676.5,747.5 675.5,747.5 674.5,747.5C 674.333,674.166 674.5,600.833 675,527.5C 675.846,525.153 677.346,523.32 679.5,522C 682.007,521.907 684.174,521.074 686,519.5C 688.517,496.378 686.183,473.711 679,451.5C 675.72,449.781 674.887,447.281 676.5,444C 672.135,430.563 666.801,417.563 660.5,405C 660.625,403.373 661.125,401.873 662,400.5C 666.007,394.834 670.34,389.501 675,384.5C 675.333,384.833 675.667,385.167 676,385.5C 682.748,381.853 689.915,380.853 697.5,382.5 Z"/></g>
<g><path style="opacity:1" fill="#6b6e71" d="M 685.5,523.5 C 683.784,525.447 681.617,526.781 679,527.5C 678.833,601.001 678.333,674.334 677.5,747.5C 677.333,673.833 677.5,600.166 678,526.5C 680.308,525.009 682.808,524.009 685.5,523.5 Z"/></g>
<g><path style="opacity:1" fill="#d96056" d="M 274.5,490.5 C 275.167,490.5 275.833,490.5 276.5,490.5C 276.5,492.167 276.5,493.833 276.5,495.5C 276.833,579.836 276.5,664.169 275.5,748.5C 274.265,749.34 273.265,750.34 272.5,751.5C 272.5,750.5 272.5,749.5 272.5,748.5C 272.833,747.833 273.167,747.167 273.5,746.5C 274.499,661.335 274.833,576.002 274.5,490.5 Z"/></g>
<g><path style="opacity:1" fill="#f9d8d7" d="M 276.5,495.5 C 277.666,579.999 277.832,664.666 277,749.5C 274.243,752.429 272.076,755.762 270.5,759.5C 271.025,760.192 271.692,760.692 272.5,761C 269.358,764.114 266.358,764.114 263.5,761C 228.998,760.832 194.664,760.332 160.5,759.5C 195.168,759.667 229.835,759.5 264.5,759C 265.571,758.148 266.571,757.315 267.5,756.5C 270.167,755.833 271.833,754.167 272.5,751.5C 273.265,750.34 274.265,749.34 275.5,748.5C 276.5,664.169 276.833,579.836 276.5,495.5 Z"/></g>
<g><path style="opacity:1" fill="#e73e30" d="M 272.5,748.5 C 272.5,749.5 272.5,750.5 272.5,751.5C 271.833,754.167 270.167,755.833 267.5,756.5C 265.692,756.491 264.025,756.991 262.5,758C 227.458,758.82 192.458,758.653 157.5,757.5C 155.81,757.144 154.81,756.144 154.5,754.5C 154.5,754.167 154.5,753.833 154.5,753.5C 157.443,753.647 160.276,754.313 163,755.5C 164.412,754.077 165.579,754.244 166.5,756C 195.833,756.667 225.167,756.667 254.5,756C 259.204,752.224 264.37,749.058 270,746.5C 270.708,747.381 271.542,748.047 272.5,748.5 Z"/></g>
<g><path style="opacity:1" fill="#cd574e" d="M 267.5,756.5 C 266.571,757.315 265.571,758.148 264.5,759C 229.835,759.5 195.168,759.667 160.5,759.5C 158.973,759.573 157.973,758.906 157.5,757.5C 192.458,758.653 227.458,758.82 262.5,758C 264.025,756.991 265.692,756.491 267.5,756.5 Z"/></g>
<g><path style="opacity:1" fill="#5e6162" d="M 560.5,757.5 C 595.457,758.487 630.457,758.82 665.5,758.5C 665.5,758.833 665.5,759.167 665.5,759.5C 665.167,759.5 664.833,759.5 664.5,759.5C 630.165,759.667 595.832,759.5 561.5,759C 560.944,758.617 560.611,758.117 560.5,757.5 Z"/></g>
<g><path style="opacity:1" fill="#a0a1a3" d="M 671.5,756.5 C 669.967,758.245 667.967,759.245 665.5,759.5C 665.5,759.167 665.5,758.833 665.5,758.5C 667.421,757.637 669.421,756.971 671.5,756.5 Z"/></g>
<g><path style="opacity:1" fill="#e1e3e3" d="M 552.5,747.5 C 554.195,751.527 556.861,754.86 560.5,757.5C 560.611,758.117 560.944,758.617 561.5,759C 595.832,759.5 630.165,759.667 664.5,759.5C 629.303,760.366 593.97,760.866 558.5,761C 553.514,757.553 551.514,753.053 552.5,747.5 Z"/></g>
</svg>
